<?xml version="1.0" encoding="utf-8"?>
<!-- Generator: Adobe Illustrator 26.3.1, SVG Export Plug-In . SVG Version: 6.00 Build 0)  -->
<svg version="1.1" id="Calque_1" xmlns="http://www.w3.org/2000/svg" xmlns:xlink="http://www.w3.org/1999/xlink" x="0px" y="0px"
	 viewBox="0 0 394 272" style="enable-background:new 0 0 394 272;" xml:space="preserve">
<style type="text/css">
	.st0{fill:#E20613;}
	.st1{fill:white;}
	.st2{fill:#E20917;}
</style>
<g>
	<polygon class="st0" points="245.5,241.5 33.6,241.5 33.6,29.7 245.5,29.7 245.5,86.1 218.5,86.1 218.5,56.7 60.6,56.7 60.6,214.5 
		218.5,214.5 218.5,185.2 245.5,185.2 	"/>
</g>
<g>
	<path class="st1" d="M156.7,169.9l-12.4-23.7h-0.1v23.7h-20.7v-66h30.8c5.3,0,9.9,0.9,13.7,2.8c3.8,1.9,6.6,4.5,8.5,7.7
		c1.9,3.3,2.8,6.9,2.8,11c0,4.4-1.2,8.3-3.7,11.7c-2.5,3.4-6,5.9-10.6,7.4l14.4,25.3H156.7z M144.2,132.4h8.2c2,0,3.5-0.5,4.5-1.4
		c1-0.9,1.5-2.3,1.5-4.2c0-1.7-0.5-3.1-1.5-4.1c-1-1-2.5-1.5-4.4-1.5h-8.2V132.4z"/>
	<path class="st1" d="M206.7,120.4v8.1h20.5V144h-20.5v9.3H230v16.5h-44v-66h44v16.5H206.7z"/>
	<path class="st1" d="M283.4,108.1c5.2,2.8,9.2,6.7,12,11.7c2.8,5,4.2,10.6,4.2,17c0,6.3-1.4,11.9-4.2,17c-2.8,5-6.8,9-12,11.9
		c-5.2,2.9-11.2,4.3-18.1,4.3h-27.5v-66h27.5C272.2,103.9,278.2,105.3,283.4,108.1z M274.5,147.6c2.7-2.5,4.1-6.2,4.1-10.9
		c0-4.7-1.4-8.4-4.1-10.9c-2.7-2.5-6.4-3.8-11.1-3.8h-4.9v29.5h4.9C268.1,151.4,271.8,150.1,274.5,147.6z"/>
	<path class="st2" d="M361,103.9l-23.7,46v20h-20.7v-20l-23.7-46h23.7l10.5,23.4l10.5-23.4H361z"/>
</g>
</svg>
