<svg width="200" height="225" viewBox="0 0 200 225" fill="none" xmlns="http://www.w3.org/2000/svg">
<g clip-path="url(#clip0_202_589)">
<path d="M156.28 122.14C168.87 107.74 169.16 103.11 157.78 96.9701C160.5 91.3001 162.32 85.3101 155.65 80.9701C148.89 76.5801 143.32 80.1101 138.3 84.5501C131.05 74.7201 124.42 74.2501 115.42 82.7701C105.98 91.7101 96.55 100.67 86.49 109.28C87.74 105.37 89.37 101.53 90.13 97.5501C90.88 93.6001 91.52 89.3701 90.73 85.5301C90.19 82.8901 87.57 79.4301 85.08 78.6801C82.59 77.9301 79.02 79.8501 76.14 81.0701C74.84 81.6201 73.83 83.1701 73.1 84.4801C62.93 102.84 50.71 120.38 46.98 141.39C46.22 145.69 46.18 150.16 44.99 154.34C43.44 159.79 41.18 165.08 38.97 170.34C38.55 171.34 36.62 172.71 35.83 172.5C31.01 171.18 28.44 174.03 25.59 176.74C18.5433 183.453 18.5533 190.133 25.62 196.78C34.19 204.87 42.71 213 51.28 221.09C56.33 225.85 58.51 225.84 63.61 221.09C66.11 218.76 68.84 216.59 70.9 213.95C72.07 212.45 73.11 209.69 72.42 208.29C70.86 205.12 72.61 203.72 74.74 202.39C79.51 199.41 84.11 195.95 89.31 193.88C106.65 186.98 121.5 176.96 134.39 164.08C142.06 156.43 150.14 149.14 157.97 141.64C165.62 134.3 165.13 128.26 156.29 122.16L156.28 122.14ZM40.73 176.08C47.16 169.31 49.03 160.89 50.62 152.14C52.39 142.38 54.05 132.34 57.94 123.26C63.23 110.89 70.57 99.3001 77.08 87.4001C77.58 86.4801 78.29 85.5201 79.17 84.9601C80.53 84.1001 82.42 82.7501 83.52 83.1201C84.73 83.5201 85.84 85.5901 86.01 87.0301C86.3 89.5301 86.41 92.2901 85.58 94.6201C82.91 102.17 79.67 109.53 76.91 117.05C76.08 119.33 72.72 122 76.17 124.08C77.14 124.66 80.7 122.31 82.45 120.69C95.4 108.64 108.17 96.4201 121.05 84.3101C123.88 81.6501 127.27 80.3401 130.87 82.9601C133.61 84.9601 133.06 89.3201 129.93 92.6401C129.19 93.4301 128.37 94.1501 127.58 94.8901C118.46 103.53 109.34 112.16 100.23 120.81C99.33 121.66 98.25 122.47 97.75 123.51C97.38 124.29 97.44 125.76 97.99 126.29C98.53 126.82 100.16 126.95 100.9 126.56C102.25 125.84 103.34 124.65 104.46 123.59C116.85 111.86 129.21 100.11 141.62 88.4001C143.07 87.0301 144.63 85.2501 146.43 84.8601C148.64 84.3801 151.98 84.3701 153.31 85.6101C154.64 86.8501 154.48 89.9301 154.23 92.1301C154.09 93.4101 152.62 94.6601 151.52 95.7101C143.01 103.85 134.44 111.94 125.89 120.05C120.94 124.74 115.9 129.36 111.12 134.2C110.31 135.02 110.59 136.81 110.37 138.15C111.75 137.96 113.38 138.15 114.44 137.49C116.14 136.44 117.46 134.84 118.93 133.45C129.07 123.87 139.17 114.24 149.38 104.71C152.6 101.71 156.78 101.33 159.26 103.45C161.79 105.61 161.51 109.39 158.5 112.77C157.58 113.81 156.53 114.74 155.52 115.7C145.17 125.51 134.75 135.27 124.53 145.21C123.43 146.28 123.53 148.45 123.07 150.1C124.68 149.6 126.72 149.52 127.83 148.52C134.51 142.48 140.95 136.22 147.51 130.06C150.19 127.55 153.51 125.61 156.69 128.55C159.84 131.45 158.09 134.64 155.38 137.25C151.91 140.57 148.5 143.95 144.94 147.2C132.01 159 120.57 172.45 104.73 181.06C92.25 187.84 79.4 194.01 66.66 200.48C58.73 193 49.96 184.75 40.75 176.06L40.73 176.08ZM58.12 219.04C46.34 208.02 34.76 197.18 23.43 186.58C26.43 183.5 29.62 180.21 32.32 177.44C44.09 188.52 55.65 199.41 67.48 210.55C64.47 213.28 61.16 216.28 58.13 219.04H58.12Z" fill="#314178"/>
<path d="M123.631 61.66C125.391 55.62 126.211 49.41 118.921 46.22C111.541 42.99 106.621 47.39 102.381 52.58C93.6308 44.06 87.0108 44.68 79.5208 54.56C71.6608 64.92 63.8308 75.3 55.3008 85.44C55.8908 81.38 56.8808 77.33 56.9708 73.27C57.0708 69.25 57.0108 64.97 55.6008 61.31C54.6408 58.79 51.4808 55.81 48.9108 55.47C46.3308 55.13 43.1208 57.62 40.4808 59.29C39.2908 60.04 38.5408 61.74 38.0408 63.15C31.0008 82.93 21.8108 102.22 21.5608 123.56C21.5108 127.93 22.2008 132.34 21.7108 136.66C21.0708 142.29 19.7108 147.88 18.3808 153.43C18.1308 154.49 16.4508 156.15 15.6308 156.07C10.6608 155.55 8.59082 158.78 6.22082 161.93C-2.08919 172.96 -2.53918 173.54 7.69082 180.46C7.87082 180.54 8.08082 180.61 8.32082 180.65C9.15082 180.79 9.84082 180.51 10.1508 180.35C10.4408 180.17 11.0708 179.74 11.4808 178.92C11.6108 178.66 11.9808 177.9 11.8408 176.92C11.7708 176.44 11.6008 176.07 11.4708 175.84C9.55082 174.56 7.63082 173.28 5.71082 172C8.16082 168.47 10.7808 164.71 12.9808 161.54C15.6808 163.35 18.3708 165.16 21.0508 166.96C21.4808 167.13 22.2908 167.37 23.3108 167.3C24.4508 167.22 25.2808 166.77 25.6708 166.53C25.9108 166.22 27.0208 164.73 26.5408 163.53C26.3808 163.14 26.0308 162.7 25.7708 162.38C25.3408 161.85 24.9608 161.51 24.7508 161.32C23.4608 160.17 21.3508 158.99 21.0408 158.82C26.2808 151.09 26.7508 142.48 26.8808 133.58C27.0308 123.66 27.0308 113.49 29.3908 103.89C32.5908 90.82 37.9408 78.19 42.4208 65.39C42.7708 64.4 43.3008 63.34 44.0808 62.64C45.2808 61.57 46.9308 59.93 48.0708 60.11C49.3308 60.31 50.7608 62.17 51.1708 63.56C51.8708 65.98 52.4208 68.68 51.9908 71.12C50.5908 79 48.5908 86.79 47.1008 94.66C46.6508 97.05 43.7708 100.22 47.5208 101.72C48.5708 102.14 51.7008 99.23 53.1608 97.35C63.9708 83.35 74.5708 69.21 85.3108 55.16C87.6708 52.08 90.8008 50.23 94.7808 52.22C97.8108 53.74 97.9808 58.14 95.4408 61.93C94.8408 62.83 94.1508 63.67 93.4908 64.54C92.9708 65.22 92.4608 65.91 91.9408 66.59C91.6308 66.97 91.2308 67.58 91.0808 68.39C90.9908 68.86 90.8908 69.39 91.1708 69.94C91.5508 70.71 92.3908 70.94 92.5508 70.98C94.0508 71.39 95.3608 70.07 95.4208 70C101.211 63.67 104.391 59.12 106.281 55.84C106.731 55.05 107.831 52.6 110.451 51.56C112.551 50.72 115.841 50.17 117.361 51.18C118.881 52.19 119.221 55.25 119.331 57.47C119.441 59.63 117.641 61 117.241 61.45C114.521 64.43 110.571 69.79 105.091 77.92C105.041 78.07 104.801 78.91 105.281 79.76C105.671 80.45 106.291 80.71 106.471 80.78C106.791 80.81 107.241 80.82 107.761 80.73C107.761 80.73 108.581 80.59 109.361 80.15C111.051 79.2 114.311 73.03 116.591 70.68C118.001 69.23 120.591 67.64 125.791 67.64C126.031 67.7 126.251 67.77 126.461 67.86H126.481C126.691 67.96 126.891 68.06 127.081 68.17C127.211 68.24 127.411 68.34 127.651 68.43C127.811 68.49 128.331 68.67 128.771 68.66C129.781 68.62 130.461 67.5 130.521 67.4C131.101 66.42 130.831 65.4 130.771 65.2C129.981 64.61 129.031 63.99 127.931 63.41C126.351 62.57 124.871 62.03 123.631 61.66Z" fill="#314178"/>
<path d="M87.8699 29.6399L86.3799 5.76995L86.1699 2.40995C85.9699 -0.790053 80.9699 -0.810053 81.1699 2.40995L82.6599 26.2799L82.8699 29.6399C83.0699 32.8399 88.0699 32.8599 87.8699 29.6399Z" fill="#314178"/>
<path d="M119.181 36.0101L131.291 11.3201L133.041 7.75007C133.631 6.54007 133.371 5.05007 132.141 4.33007C131.041 3.69007 129.321 4.01007 128.721 5.23007L116.611 29.9201L114.861 33.4901C114.271 34.7001 114.531 36.1901 115.761 36.9101C116.861 37.5501 118.581 37.2301 119.181 36.0101V36.0101Z" fill="#314178"/>
<path d="M145.519 56.3101L169.049 39.3301L172.409 36.9001C173.499 36.1101 174.029 34.7201 173.309 33.4801C172.679 32.4001 170.989 31.7901 169.889 32.5801L146.359 49.5601L142.999 51.9901C141.909 52.7801 141.379 54.1701 142.099 55.4101C142.729 56.4901 144.419 57.1001 145.519 56.3101Z" fill="#314178"/>
<path d="M166.69 76.6501L193.55 69.4901L197.35 68.4801C200.46 67.6501 199.14 62.8301 196.02 63.6601L169.16 70.8201L165.36 71.8301C162.25 72.6601 163.57 77.4801 166.69 76.6501V76.6501Z" fill="#314178"/>
</g>
<defs>
<clipPath id="clip0_202_589">
<rect width="199.12" height="224.64" fill="white"/>
</clipPath>
</defs>
</svg>
