<svg width="158" height="159" viewBox="0 0 158 159" fill="none" xmlns="http://www.w3.org/2000/svg">
<path d="M0 145.927C0 106.65 0 67.3727 0 28.0955C0.545517 25.5778 1.30084 23.1859 2.89543 21.0877C6.04264 17.0173 10.2809 15.2969 15.3164 15.2969C23.8768 15.3388 32.3953 15.2969 40.9557 15.2969C41.5432 15.2969 42.1726 15.2969 42.9699 15.2969C42.9699 14.6255 42.9699 14.1219 42.9699 13.6184C42.9699 10.8908 43.0119 8.20516 42.9699 5.47758C42.928 3.25355 43.7252 1.74288 45.8654 0.987549C46.3689 0.987549 46.8725 0.987549 47.418 0.987549C49.4742 1.86877 50.2714 3.42139 50.1875 5.60346C50.1036 8.07926 50.1875 10.5131 50.1875 12.9889C50.1875 13.7442 50.1875 14.4576 50.1875 15.171C71.7984 15.171 93.1155 15.171 114.6 15.171C114.6 11.9818 114.642 8.91852 114.6 5.85524C114.558 3.67317 115.188 1.9527 117.328 1.02951C117.957 1.02951 118.545 1.02951 119.174 1.02951C121.273 1.99466 121.944 3.67317 121.86 5.85524C121.818 7.74356 121.86 9.63189 121.86 11.5622C121.86 12.7791 121.86 13.996 121.86 15.3388C122.699 15.3388 123.287 15.3388 123.916 15.3388C130.127 15.3388 136.337 15.2969 142.548 15.3388C151.444 15.4228 157.654 21.4234 157.654 30.0678C157.696 59.3998 157.654 88.7318 157.654 118.064C157.654 119.826 157.109 121.253 155.766 122.554C144.436 133.842 133.106 145.13 121.818 156.502C120.391 157.97 118.839 158.6 116.783 158.6C89.8843 158.558 62.9442 158.558 36.0461 158.558C29.0383 158.558 21.9885 158.558 14.9807 158.558C9.98715 158.558 5.95872 156.67 2.89543 152.683C1.25888 150.627 0.587479 148.277 0 145.927ZM7.13368 58.3507C7.13368 59.0221 7.13368 59.4417 7.13368 59.9033C7.13368 87.6827 7.13368 115.504 7.13368 143.283C7.13368 148.487 10.0291 151.382 15.2745 151.382C47.8376 151.382 80.4008 151.382 112.964 151.382C113.467 151.382 113.929 151.34 114.558 151.298C114.558 150.543 114.558 149.997 114.558 149.452C114.558 143.241 114.558 137.031 114.558 130.821C114.558 125.827 116.237 121.589 120.307 118.483C123.161 116.301 126.434 115.504 129.959 115.504C136.169 115.504 142.38 115.504 148.59 115.504C149.178 115.504 149.765 115.462 150.353 115.42C150.353 96.2851 150.353 77.3599 150.353 58.3507C102.557 58.3507 54.9713 58.3507 7.13368 58.3507ZM114.475 22.5984C92.9476 22.5984 71.5886 22.5984 50.1456 22.5984C50.1456 27.0465 50.1456 31.4106 50.1456 35.7747C50.1456 36.6559 50.1036 37.5372 49.8938 38.3764C49.1385 41.7754 45.9493 44.1673 42.5923 43.9155C38.8995 43.6218 36.2139 41.062 35.8363 37.3273C35.5005 33.9703 37.7665 30.7392 41.1655 29.858C41.711 29.7321 42.2565 29.6062 42.844 29.4803C42.844 27.1723 42.844 24.8644 42.844 22.4725C42.2565 22.4725 41.753 22.4725 41.2494 22.4725C32.6051 22.4725 23.9188 22.5984 15.2745 22.4305C10.8684 22.3466 7.04975 25.2001 7.13368 30.5294C7.2176 36.8238 7.13368 43.1602 7.17564 49.4546C7.17564 49.9582 7.2176 50.4617 7.25956 51.0072C55.0132 51.0072 102.641 51.0072 150.353 51.0072C150.395 50.6715 150.437 50.4198 150.437 50.168C150.437 43.4539 150.479 36.7399 150.437 30.0258C150.395 25.3679 147.373 22.5145 142.716 22.5145C136.253 22.5145 129.791 22.5145 123.329 22.5145C122.867 22.5145 122.447 22.5564 121.818 22.5984C121.818 23.3957 121.818 24.0671 121.818 24.7805C121.776 29.1446 121.902 33.5087 121.608 37.8309C121.356 41.3558 118.167 43.9575 114.642 43.9575C111.076 43.9575 108.054 41.3558 107.509 37.747C107.005 34.348 109.187 30.907 112.586 29.9419C113.216 29.774 113.845 29.6481 114.517 29.4803C114.475 27.1723 114.475 24.9483 114.475 22.5984ZM144.688 122.89C144.688 122.89 144.646 122.806 144.562 122.806C139.065 122.806 133.61 122.722 128.112 122.89C124.755 122.973 121.944 125.911 121.86 129.31C121.734 134.723 121.818 140.178 121.818 145.591C121.818 145.675 121.944 145.717 121.902 145.675C129.497 138.08 137.051 130.485 144.688 122.89Z" fill="#314178"/>
<path d="M73.9393 104.845C76.0375 106.859 77.632 109.083 78.2615 111.853C79.5623 117.434 78.2195 122.26 73.9813 126.078C69.4912 130.149 64.2039 130.988 58.7068 128.554C53.3356 126.204 50.4821 121.798 50.1464 115.923C50.0205 113.741 51.4472 112.147 53.4195 112.021C55.4337 111.853 56.9444 113.196 57.2381 115.378C57.8676 119.826 59.9657 122.176 63.7004 122.595C67.3092 123.015 70.7082 120.539 71.3796 117.014C72.1349 113.238 69.9528 109.671 66.3021 108.706C65.5048 108.496 64.6655 108.454 63.8682 108.328C62.0638 107.992 60.8469 106.524 60.8469 104.803C60.8469 103.041 62.1058 101.656 63.9522 101.32C64.5397 101.236 65.1691 101.194 65.7985 101.069C69.2814 100.397 71.7992 97.166 71.5474 93.767C71.2537 89.9903 68.4422 87.1788 64.6655 86.969C61.2246 86.7592 58.0774 89.3189 57.406 92.8018C57.322 93.3054 57.2801 93.809 57.1961 94.3125C56.8604 96.4526 55.3078 97.7954 53.3356 97.6276C51.4053 97.4597 50.0625 95.8651 50.1464 93.8089C50.2723 89.9064 51.699 86.5074 54.5525 83.8218C62.6933 76.1846 75.7018 80.0451 78.3454 90.8716C79.4784 95.5294 78.4293 99.8096 75.1982 103.46C74.8205 103.88 74.4009 104.342 73.9393 104.845Z" fill="#314178"/>
<path d="M93.074 86.8851C91.7731 86.8851 90.7241 86.9271 89.675 86.8851C87.451 86.7592 85.9822 85.3744 85.9403 83.3602C85.8983 81.4299 87.451 79.8353 89.5911 79.7514C91.899 79.6675 94.207 79.6675 96.5149 79.7514C98.8229 79.8353 100.208 81.304 100.25 83.7379C100.292 86.0878 100.25 88.4377 100.25 90.7876C100.25 102.327 100.25 113.825 100.25 125.365C100.25 127.841 99.3264 129.226 97.3961 129.687C95.5078 130.149 93.5775 128.974 93.1998 127.085C93.032 126.33 93.032 125.575 93.032 124.778C93.032 112.86 93.032 100.901 93.032 88.9832C93.074 88.3538 93.074 87.7244 93.074 86.8851Z" fill="#314178"/>
</svg>
