<svg width="118" height="208" viewBox="0 0 118 208" fill="none" xmlns="http://www.w3.org/2000/svg">
<g clip-path="url(#clip0_486_1447)">
<path d="M112.334 152.888C112.398 182.955 87.6137 207.968 57.2802 207.455C28.4766 206.974 3.70332 182.816 4.18865 151.777C4.66344 121.849 28.5399 97.9898 57.9555 97.8722C88.3206 97.7547 112.535 122.522 112.334 152.888ZM105.93 152.77C106.236 126.048 84.7967 104.678 59.2427 104.262C32.2115 103.813 11.0889 125.193 10.5191 151.2C9.90718 178.82 31.1987 200.66 57.7128 201.001C84.1953 201.354 106.268 179.194 105.919 152.77H105.93Z" stroke="#314178" stroke-width="3" stroke-miterlimit="10"/>
<path d="M19.7724 0.566227C24.8157 0.566227 29.8589 0.641021 34.9022 0.534173C37.0018 0.491434 38.2785 1.38895 39.3336 3.11988C46.5714 14.8945 53.862 26.6263 61.1315 38.3796C66.1642 46.5106 71.218 54.6204 76.1875 62.7835C78.5192 66.6193 77.137 69.0127 72.674 69.0127C62.9568 69.0234 53.2395 68.9379 43.5222 69.0768C41.0639 69.1089 39.534 68.1686 38.3207 66.1813C33.8577 58.9156 29.3631 51.6714 24.879 44.4058C19.7513 36.0823 14.6236 27.7589 9.49593 19.4355C6.76327 15.0013 3.98842 10.5778 1.28741 6.11161C-0.49567 3.17331 0.97089 0.619651 4.43155 0.598282C9.54868 0.555543 14.6658 0.598282 19.7724 0.598282V0.576912V0.566227ZM68.095 62.1424C67.4514 60.9564 67.0821 60.1658 66.6284 59.4285C56.2465 42.6107 45.8328 25.8143 35.4931 8.96444C34.6385 7.56474 33.6256 7.05187 32.1168 7.05187C25.4698 7.07324 18.8228 7.05187 12.1864 7.10529C11.5217 7.10529 10.8675 7.48994 10.2134 7.70364C10.4244 8.30199 10.551 8.95375 10.8675 9.47731C13.674 14.0504 16.5228 18.5807 19.3398 23.1431C27.0419 35.6549 34.744 48.1775 42.4355 60.7C43.1846 61.9074 44.092 62.5378 45.6324 62.5164C52.2794 62.4309 58.9264 62.4843 65.5628 62.4737C66.2592 62.4737 66.9661 62.3027 68.1056 62.1531L68.095 62.1424Z" stroke="#314178" stroke-width="3" stroke-miterlimit="10"/>
<path d="M96.0549 7.08398C92.8369 7.08398 89.6189 7.11603 86.4114 7.07329C84.8077 7.05192 83.7737 7.56479 82.8664 9.06065C78.0447 17.0528 73.0858 24.9702 68.1691 32.909C67.8209 33.4753 67.5044 34.266 66.9874 34.469C65.8057 34.9391 64.297 35.6443 63.3052 35.249C62.4717 34.9177 61.6804 33.1334 61.7753 32.0756C61.902 30.708 62.8199 29.3617 63.5795 28.1222C68.7072 19.7988 73.9088 11.5181 79.0364 3.19473C80.0915 1.47448 81.3471 0.544909 83.4467 0.566278C93.4594 0.630387 103.472 0.598333 113.485 0.566278C115.088 0.566278 116.924 0.630387 117.346 2.33995C117.673 3.64349 117.336 5.45989 116.618 6.62453C105.867 24.2757 95.0103 41.8628 84.1747 59.4606C82.4971 62.1852 80.8301 63.0186 79.1103 61.9822C77.2006 60.8389 77.0318 58.9798 78.741 56.2125C87.4454 42.0552 96.1709 27.9086 104.896 13.7619C105.825 12.2554 106.764 10.7702 107.703 9.26366C108.652 7.74643 108.368 7.12671 106.585 7.09466C103.082 7.04124 99.5683 7.07329 96.0549 7.07329V7.08398Z" stroke="#314178" stroke-width="3" stroke-miterlimit="10"/>
<path d="M58.3246 74.6864C65.3303 74.6864 72.3466 74.6757 79.3523 74.6864C82.3065 74.6864 83.6992 76.0113 83.7309 78.971C83.7731 84.0676 83.8258 89.1749 83.5937 94.2715C83.541 95.4361 82.6125 96.9 81.6524 97.5731C81.0088 98.0219 79.3206 97.6586 78.5715 97.0602C77.8752 96.4939 77.5587 95.1477 77.527 94.1219C77.4004 90.6494 77.4109 87.1768 77.4953 83.7043C77.5376 81.9306 76.9362 81.1506 75.1214 81.1613C63.8743 81.2041 52.6377 81.2147 41.3906 81.172C39.7868 81.172 39.1538 81.749 39.1854 83.3624C39.2487 86.2473 39.2065 89.1321 39.1854 92.0063C39.1749 94.8485 38.0354 96.355 35.9464 96.323C33.9206 96.2909 32.7811 94.8378 32.7706 92.1346C32.7495 87.7752 32.7495 83.4158 32.7811 79.0457C32.8022 76.054 34.1211 74.697 37.0753 74.6864C44.1549 74.6543 51.245 74.6757 58.3246 74.6757V74.6864Z" stroke="#314178" stroke-width="3" stroke-miterlimit="10"/>
<path d="M59.244 129.283H67.0467V177.369H54.4889V140.91V140.109L53.7688 140.461C50.4015 142.112 47.2777 143.068 44.4023 143.348V137.866C51.2931 137.075 56.2766 134.225 59.244 129.283Z" fill="#314178" stroke="#314178"/>
</g>
<defs>
<clipPath id="clip0_486_1447">
<rect width="118" height="208" fill="white"/>
</clipPath>
</defs>
</svg>
