<svg width="229" height="163" viewBox="0 0 229 163" fill="none" xmlns="http://www.w3.org/2000/svg">
<path d="M213.741 4H16.2589C10.0408 4 5 8.96766 5 15.0956V117.904C5 124.032 10.0408 129 16.2589 129H213.741C219.959 129 225 124.032 225 117.904V15.0956C225 8.96766 219.959 4 213.741 4Z" stroke="#314178" stroke-width="7" stroke-miterlimit="10"/>
<path d="M197.598 97.1931H189.054C189.049 97.2975 189.039 97.3821 189.039 97.4666C189.039 98.2574 189.049 99.0481 189.034 99.8439C189.034 100.093 189.113 100.142 189.342 100.142C191.762 100.137 194.187 100.142 196.607 100.142C196.836 100.142 196.952 100.26 196.955 100.495C196.955 100.898 196.955 101.301 196.955 101.754H196.612C194.192 101.754 191.767 101.754 189.347 101.749C189.103 101.749 189.019 101.803 189.024 102.062C189.039 102.843 189.039 103.629 189.024 104.409C189.019 104.658 189.103 104.708 189.333 104.708C192.106 104.703 194.879 104.708 197.657 104.708C197.762 104.708 197.861 104.708 197.986 104.708V106.279H187.226C187.212 106.105 187.182 105.936 187.182 105.767C187.182 102.564 187.182 99.3615 187.182 96.1636C187.182 95.6166 187.281 95.5171 187.829 95.5171C190.428 95.5221 193.027 95.532 195.626 95.5469C195.755 95.5469 195.915 95.5817 196.004 95.6613C196.522 96.1238 197.025 96.6112 197.533 97.0887C197.553 97.1085 197.568 97.1434 197.602 97.203L197.598 97.1931Z" fill="#E30613"/>
<path d="M196.282 115.838H192.403V114.256H197.95C197.95 114.346 197.96 114.421 197.96 114.495C197.96 115.614 197.96 116.733 197.955 117.852C197.955 117.976 197.905 118.131 197.82 118.215C197.442 118.598 197.039 118.966 196.645 119.339L196.466 118.414L196.381 118.344C196.332 118.424 196.302 118.519 196.237 118.588C195.391 119.468 194.32 119.976 193.14 120.095C191.612 120.249 190.203 119.787 189.018 118.792C187.474 117.499 186.727 115.828 186.931 113.819C187.21 111.049 189.102 108.95 191.622 108.552C193.693 108.229 195.585 108.612 197.103 110.188C197.542 110.646 197.865 111.183 198.124 111.79C197.646 112.013 197.178 112.237 196.7 112.446C196.655 112.466 196.546 112.381 196.496 112.327C196.053 111.849 195.669 111.302 195.172 110.889C193.285 109.338 190.74 110.139 189.55 111.675C187.937 113.759 188.684 116.634 190.506 117.792C191.9 118.683 194.031 118.573 195.291 117.544C195.769 117.151 196.088 116.644 196.262 116.052C196.282 115.987 196.282 115.922 196.292 115.833L196.282 115.838Z" fill="#E30613"/>
<path d="M174.086 118.001H178.313V110.531C178.204 110.531 178.104 110.531 177.999 110.531C176.74 110.531 175.485 110.527 174.225 110.536C173.986 110.536 173.887 110.482 173.902 110.223C173.922 109.785 173.907 109.348 173.907 108.895H184.651V110.507H180.24V117.957H184.651V119.598C184.567 119.598 184.477 119.608 184.387 119.608C181.535 119.608 178.687 119.608 175.834 119.603C175.689 119.603 175.51 119.538 175.405 119.439C174.937 119.001 174.494 118.538 174.041 118.081L174.086 118.001Z" fill="#E30613"/>
<path d="M182.914 95.5667H184.652V106.284H182.924C182.924 106.175 182.924 106.07 182.924 105.971C182.924 104.877 182.924 103.783 182.924 102.693C182.924 102.47 182.909 102.246 182.894 102.022C182.88 101.818 182.755 101.714 182.561 101.689C182.476 101.679 182.387 101.679 182.302 101.679C180.285 101.679 178.269 101.679 176.253 101.679C175.76 101.679 175.62 101.818 175.62 102.306C175.62 103.519 175.62 104.733 175.625 105.946C175.625 106.045 175.625 106.15 175.625 106.294C175.222 106.294 174.839 106.294 174.455 106.294C174.08 106.294 173.893 106.11 173.893 105.742C173.893 103.171 173.893 100.595 173.893 98.0236C173.893 97.8197 173.942 97.6605 174.087 97.5163C174.5 97.0985 174.898 96.6758 175.312 96.258C175.391 96.1735 175.486 96.1039 175.62 95.9845V99.9731C175.74 99.9781 175.829 99.988 175.919 99.988C178.15 99.988 180.38 99.988 182.616 99.993C182.85 99.993 182.924 99.9283 182.924 99.6896C182.914 98.4264 182.919 97.1582 182.919 95.895C182.919 95.7905 182.919 95.6911 182.919 95.5618L182.914 95.5667Z" fill="#E30613"/>
<path d="M199.988 134.453C198.131 134.19 196.542 135.085 195.148 136.686C192.918 139.252 191.459 139.576 188.407 138.029C186.44 137.034 184.683 136.999 182.696 137.934C179.664 139.367 178.24 139.039 176.129 136.457C174.71 134.727 173.072 133.926 170.811 133.966C167.431 134.02 166.455 133.235 165.484 129.873C164.881 127.779 163.711 126.411 161.69 125.546C158.568 124.213 157.911 123.02 158.394 119.663C158.713 117.444 158.195 115.684 156.666 114.023C154.371 111.526 154.266 110.228 156.049 107.433C157.249 105.553 157.552 103.763 156.836 101.595C155.725 98.2425 156.153 97.0042 159.101 95.1193C161.102 93.8362 161.844 92.0806 162.043 89.8575C162.297 87.0277 163.263 85.8043 166.032 85.4064C168.66 85.0285 170.388 83.7901 171.613 81.4477C172.818 79.145 174.401 78.4538 176.876 79.1699C179.465 79.9209 181.596 79.523 183.722 77.8321C185.743 76.2257 187.486 76.2804 189.452 77.9365C191.464 79.6324 193.505 80.1994 196.099 79.4832C198.624 78.7919 200.282 79.5777 201.417 81.9749C202.562 84.4018 204.329 85.6103 206.889 86.1027C209.587 86.6199 210.598 87.908 210.692 90.7179C210.772 93.0604 211.648 94.801 213.61 96.1637C216.264 98.0088 216.712 99.3565 215.582 102.341C214.72 104.613 214.92 106.563 216.164 108.627C217.718 111.208 217.543 112.74 215.432 114.838C213.675 116.579 212.958 118.434 213.361 120.926C213.804 123.641 212.928 125.158 210.359 126.108C207.879 127.028 206.43 128.575 205.728 131.156C205.011 133.802 203.65 134.535 200 134.5L199.988 134.453ZM186.002 129.42C197.926 129.43 207.65 119.732 207.705 107.776C207.76 95.8802 198.001 86.0927 186.072 86.0679C174.192 86.043 164.428 95.8454 164.448 107.781C164.468 119.633 174.207 129.41 186.002 129.42Z" fill="#314178" stroke="white" stroke-width="4" stroke-miterlimit="10"/>
<path d="M193.715 163C192.052 155.281 190.483 147.995 188.875 140.545C189.398 140.575 189.721 140.565 190.035 140.615C192.291 140.983 194.292 140.401 195.701 138.621C197.185 136.741 198.937 136.04 201.297 136.209C202.532 136.298 203.807 135.786 205.375 135.488C207.033 143.191 208.736 151.074 210.518 159.335C207.88 158.484 205.559 157.907 203.389 156.977C201.621 156.216 200.461 156.584 199.196 157.912C197.583 159.603 195.771 161.11 193.71 163H193.715Z" fill="#314178"/>
<path d="M177.08 162.577C176.408 162.02 175.94 161.682 175.532 161.279C173.993 159.767 172.435 158.265 170.961 156.694C170.254 155.938 169.612 155.739 168.591 156.077C166.037 156.913 163.433 157.604 160.371 158.494C162.393 150.418 164.319 142.719 166.196 135.224C168.407 135.443 170.443 135.498 172.405 135.91C173.271 136.094 174.093 136.915 174.74 137.626C175.985 138.999 177.279 140.262 179.206 140.431C180.227 140.521 181.278 140.332 182.672 140.247C180.829 147.603 178.997 154.943 177.085 162.577H177.08Z" fill="#314178"/>
<path d="M186.066 127.56C175.067 127.56 166.23 118.767 166.215 107.801C166.2 96.7556 175.052 87.8783 186.086 87.8733C197.049 87.8683 205.882 96.691 205.907 107.677C205.927 118.777 197.169 127.555 186.066 127.56ZM186.121 90.4544C176.511 90.4544 168.754 98.173 168.759 107.732C168.769 117.266 176.621 125.133 186.106 125.113C195.58 125.093 203.432 117.181 203.417 107.677C203.397 98.2377 195.585 90.4594 186.121 90.4544Z" fill="#314178"/>
<path d="M26.9123 107.155H127.631C129 107.155 130.369 107.185 131.738 107.155C131.798 107.155 131.853 107.155 131.913 107.155C133.516 107.155 133.516 104.668 131.913 104.668H31.1991C29.8299 104.668 28.4607 104.638 27.0915 104.668C27.0318 104.668 26.977 104.668 26.9173 104.668C25.314 104.668 25.314 107.155 26.9173 107.155H26.9123Z" fill="#314178"/>
<path d="M26.9114 81.0002H143.776C145.355 81.0002 146.933 81.03 148.511 81.0002C148.581 81.0002 148.646 81.0002 148.715 81.0002C150.319 81.0002 150.319 78.5135 148.715 78.5135H31.8505C30.2722 78.5135 28.6938 78.4837 27.1155 78.5135C27.0458 78.5135 26.9811 78.5135 26.9114 78.5135C25.3082 78.5135 25.3082 81.0002 26.9114 81.0002Z" fill="#314178"/>
<path d="M26.9114 54.8405H194.984C197.25 54.8405 199.52 54.8853 201.791 54.8405C201.89 54.8405 201.99 54.8405 202.089 54.8405C203.693 54.8405 203.693 52.3539 202.089 52.3539H34.0163C31.7509 52.3539 29.4805 52.3091 27.2101 52.3539C27.1105 52.3539 27.011 52.3539 26.9114 52.3539C25.3082 52.3539 25.3082 54.8405 26.9114 54.8405Z" fill="#314178"/>
<path d="M26.9114 28.686H194.984C197.25 28.686 199.52 28.7307 201.791 28.686C201.89 28.686 201.99 28.686 202.089 28.686C203.693 28.686 203.693 26.1993 202.089 26.1993H34.0163C31.7509 26.1993 29.4805 26.1546 27.2101 26.1993C27.1105 26.1993 27.011 26.1993 26.9114 26.1993C25.3082 26.1993 25.3082 28.686 26.9114 28.686Z" fill="#314178"/>
</svg>
