<svg width="187" height="192" viewBox="0 0 187 192" fill="none" xmlns="http://www.w3.org/2000/svg">
<path d="M33.7834 186.34L33.7853 186.336C35.9162 181.751 38.0337 177.197 40.4692 172.838C43.1294 168.124 48.7085 165.92 54.0838 167.263C65.9583 170.264 76.3498 176.004 84.957 184.802L33.7834 186.34ZM33.7834 186.34C33.2972 187.37 33.2953 188.11 33.5817 188.716C33.8763 189.34 34.5433 189.973 35.7443 190.625H35.7478H35.7516H35.7553H35.759H35.7627H35.7664H35.7701H35.7738H35.7775H35.7812H35.7849H35.7886H35.7923H35.796H35.7997H35.8034H35.8071H35.8108H35.8145H35.8182H35.8219H35.8256H35.8292H35.8329H35.8366H35.8403H35.844H35.8477H35.8513H35.855H35.8587H35.8624H35.8661H35.8697H35.8734H35.8771H35.8808H35.8844H35.8881H35.8918H35.8955H35.8991H35.9028H35.9065H35.9101H35.9138H35.9175H35.9211H35.9248H35.9284H35.9321H35.9358H35.9394H35.9431H35.9467H35.9504H35.9541H35.9577H35.9614H35.965H35.9687H35.9723H35.976H35.9796H35.9833H35.9869H35.9906H35.9942H35.9979H36.0015H36.0051H36.0088H36.0124H36.0161H36.0197H36.0234H36.027H36.0306H36.0343H36.0379H36.0415H36.0452H36.0488H36.0525H36.0561H36.0597H36.0634H36.067H36.0706H36.0742H36.0779H36.0815H36.0851H36.0888H36.0924H36.096H36.0996H36.1033H36.1069H36.1105H36.1141H36.1178H36.1214H36.125H36.1286H36.1322H36.1359H36.1395H36.1431H36.1467H36.1503H36.154H36.1576H36.1612H36.1648H36.1684H36.172H36.1756H36.1793H36.1829H36.1865H36.1901H36.1937H36.1973H36.2009H36.2045H36.2082H36.2118H36.2154H36.219H36.2226H36.2262H36.2298H36.2334H36.237H36.2406H36.2442H36.2478H36.2514H36.255H36.2586H36.2622H36.2658H36.2694H36.2731H36.2767H36.2803H36.2839H36.2875H36.2911H36.2947H36.2983H36.3019H36.3055H36.3091H36.3127H36.3162H36.3199H36.3234H36.327H36.3306H36.3342H36.3378H36.3414H36.345H36.3486H36.3522H36.3558H36.3594H36.363H36.3666H36.3702H36.3738H36.3774H36.381H36.3846H36.3882H36.3918H36.3954H36.3989H36.4025H36.4061H36.4097H36.4133H36.4169H36.4205H36.4241H36.4277H36.4313H36.4349H36.4385H36.4421H36.4456H36.4492H36.4528H36.4564H36.46H36.4636H36.4672H36.4708H36.4744H36.478H36.4816H36.4852H36.4887H36.4923H36.4959H36.4995H36.5031H36.5067H36.5103H36.5139H36.5175H36.5211H36.5247H36.5283H36.5318H36.5354H36.539H36.5426H36.5462H36.5498H36.5534H36.557H36.5606H36.5642H36.5678H36.5714H36.575H36.5785H36.5821H36.5857H36.5893H36.5929H36.5965H36.6001H36.6037H36.6073H36.6109H36.6145H36.6181H36.6217H36.6253H36.6289H36.6325H36.6361H36.6396H36.6432H36.6468H36.6504H36.654H36.6576H36.6612H36.6648H36.6684H36.672H36.6756H36.6792H36.6828H36.6864H36.69H36.6936H36.6972H36.7008H36.7044H36.708H36.7116H36.7152H36.7188H36.7224H36.726H36.7296H36.7332H36.7368H36.7405H36.7441H36.7477H36.7513H36.7549H36.7585H36.7621H36.7657H36.7693H36.7729H36.7765H36.7801H36.7837H36.7874H36.791H36.7946H36.7982H36.8018H36.8054H36.809H36.8126H36.8163H36.8199H36.8235H36.8271H36.8307H36.8343H36.838H36.8416H36.8452H36.8488H36.8524H36.856H36.8597H36.8633H36.8669H36.8705H36.8742H36.8778H36.8814H36.885H36.8887H36.8923H36.8959H36.8995H36.9032H36.9068H36.9104H36.9141H36.9177H36.9213H36.925H36.9286H36.9322H36.9359H36.9395H36.9431H36.9468H36.9504H36.954H36.9577H36.9613H36.965H36.9686H36.9722H36.9759H36.9795H36.9832H36.9868H36.9905H36.9941H36.9978H37.0014H37.0051H37.0087H37.0124H37.016H37.0197H37.0233H37.027H37.0306H37.0343H37.0379H37.0416H37.0452H37.0489H37.0526H37.0562H37.0599H37.0636H37.0672H37.0709H37.0746H37.0782H37.0819H37.0826C37.3568 190.312 37.6487 190.002 37.9288 189.705C38.1001 189.523 38.267 189.346 38.4227 189.175C38.9275 188.623 39.3616 188.097 39.6721 187.533C40.7533 185.52 41.7294 183.48 42.7152 181.42C43.4404 179.904 44.1709 178.378 44.9521 176.843C46.5824 173.585 49.6334 172.169 52.8359 172.97L52.838 172.97M33.7834 186.34L52.838 172.97M52.838 172.97C63.4113 175.646 72.6953 180.678 80.4752 188.458C80.8792 188.862 81.3519 189.219 81.8737 189.582C82.0361 189.695 82.2073 189.812 82.3826 189.931C82.6942 190.143 83.0186 190.364 83.3283 190.59C83.6176 190.618 83.9375 190.624 84.2639 190.625M52.838 172.97L84.2639 190.625M84.2639 190.625C85.8177 189.728 86.4671 188.855 86.5817 188.059C86.7005 187.233 86.291 186.168 84.9572 184.803L84.2639 190.625Z" fill="#314178" stroke="white" stroke-width="1.5"/>
<path d="M178.26 90.7519L177.792 89.1512L178.26 90.7519ZM178.26 90.7519H176.592M178.26 90.7519H176.592M176.592 90.7519H176.265H175.938H175.611H175.284H174.958H174.631H174.304H173.977H173.65H173.323H172.996H172.669H172.342H172.015H171.688H171.361H171.034H170.707H170.381H170.054H169.727H169.4H169.073H168.746H168.419H168.092H167.766H167.439H167.112H166.785H166.458H166.131H165.805H165.478H165.151H164.824H164.497H164.171H163.844H163.517H163.19H162.864H162.537H162.21H161.883H161.557H161.23H160.903H160.576H160.25H159.923H159.596H159.269H158.943H158.616H158.289H157.963H157.636H157.309H156.983H156.656H156.329H156.003H155.676H155.349H155.023H154.696H154.369H154.043H153.716H153.39H153.063H152.736H152.41H152.083H151.757H151.43H151.103H150.777H150.45H150.124H149.797H149.471H149.144H148.817H148.491H148.164H147.838H147.511H147.185H146.858H146.532H146.205H145.879H145.552H145.226H144.899H144.573H144.246H143.92H143.593H143.267H142.94H142.614H142.287H141.961H141.635H141.308H140.982H140.655H140.329H140.002H139.676H139.349H139.023H138.697H138.37H138.044H137.717H137.391H137.065H136.738H136.412H136.086H135.759H135.433H135.106H134.78H134.454H134.127H133.801H133.475H133.148H132.822H132.496H132.169H131.843H131.517H131.19H130.864H130.538H130.211H129.885H129.559H129.233H128.906H128.58H128.254H127.927H127.601H127.275H126.949H126.622H126.296H125.97H125.644H125.317H124.991H124.665H124.339H124.012H123.686H123.36H123.034H122.707H122.381H122.055H121.729H121.403H121.076H120.75H120.424H120.098H119.772H119.445H119.119H118.793H118.467H118.141H117.814H117.488H117.162H116.836H116.51H116.184H115.858H115.531H115.205H114.879H114.553H114.227H113.901H113.575H113.248H112.922H112.596H112.27H111.944H111.618H111.292H110.966H110.64H110.313H109.987H109.661H109.335H109.009H108.683H108.357H108.031H107.705H107.379H107.053H106.727H106.401H106.074H105.748H105.422H105.096H104.77H104.444H104.118H103.792H103.466H103.14H102.814H102.488H102.162H101.836H101.51H101.184H100.858H100.532H100.206H99.8798H99.5538H99.2278H98.9018H98.5758H98.2498H97.9238H97.5978H97.2719H96.9459H96.6199H96.2939H95.9679H95.6419H95.316H94.99H94.664H94.3381H94.0121H93.6861H93.3602H93.0342H92.7083H92.3823H92.0563H91.7304H91.4044H91.0785H90.7526H90.4266H90.1007H89.7747H89.4488H89.1229H88.7969H88.471H88.1451H87.8191H87.4932H87.1673H86.8414H86.5155H86.1896H85.8636H85.5377H85.2118H84.8859H84.56H84.2341H83.9082H83.5823H83.2564H82.9305H82.6046H82.2787H81.9528H81.6269H81.301H80.9751H80.6493H80.3234H79.9975H79.6716H79.3457H79.0199H78.694H78.3681H78.0422H77.7164H77.3905H77.0646H76.7388H76.4129H76.087H75.7612H75.4353H75.1095H74.7836H74.4577H74.1319H73.806H73.4802H73.1543H72.8285H72.5026H72.1768H71.8509H71.5251H71.1992H70.8734H70.5476H70.2217H69.8959H69.5701H69.2442H68.9184H68.5926H68.2667H67.9409H67.6151H67.2892H66.9634H66.6376H66.3118H65.9859H65.6601H65.3343H65.0085H64.6826H64.3568H64.031H63.7052H63.3794H63.0536H62.7277H62.4019H62.0761H61.7503H61.4245H61.0987H60.7729H60.4471H60.1212H59.7954H59.4696H59.1438H58.818H58.4922H58.1664H57.8406H57.5148H57.189H56.8632H56.5374H56.2116H55.8858H55.56H55.2342H54.9084H54.5826H54.2568H53.931H53.6052H53.2794H52.9536H52.6278H52.302H51.9762H51.6505H51.3247H50.9989H50.6731H50.3473H50.0215H49.6957H49.3699H49.0441H48.7183H48.3925H48.0667H47.741H47.4152H47.0894H46.7636H46.4378H46.112H45.7862H45.4604H45.1346H44.8089H44.4831H44.1573H43.8315H43.5057H43.1799H42.8541H42.5283H42.2025H41.8768H41.551H41.2252H40.8994H40.5736H40.2478H39.922H39.5962H39.2704H38.9447H38.6189H38.2931H37.9673H37.6415H37.3157H36.9899H36.6641H36.3383H36.0125H35.6868H35.361H35.0352H34.7094H34.3836H34.0578H33.732H33.4062H33.0804H32.7546H32.4288H32.103H31.7772H31.4514H31.1256H30.7998H30.474H30.1482H29.8224H29.4966H29.1708H28.845H28.5192H28.1934H27.8676H27.5418H27.216H26.8902H26.5644H26.2386H25.9128H25.587H25.2612H24.9354H24.6096H24.2838H23.9579H23.6321H23.3063H22.9805H22.6547H22.3289H22.003H21.6772H21.3514H21.0256H20.6998H20.3739H20.0481H19.7223H19.3965H19.0706H18.7448H18.419H18.0932H17.7673H17.4415H17.1157H16.7898H16.464H16.1382H15.8123H15.4865H15.1606H14.8348H14.509H14.1831H13.8573H13.5314H13.2056H12.8797H12.5539H12.228H11.9022H11.5763H11.2505H10.9246H10.5987H10.2729H9.94702H9.62115H8.05119M176.592 90.7519H8.05119M8.05119 90.7519L8.40292 89.2218M8.05119 90.7519L8.40292 89.2218M8.40292 89.2218C9.83705 82.9834 15.1647 79.0259 21.944 79.0259M8.40292 89.2218L21.944 79.0259M21.944 79.0259H22.2218M21.944 79.0259H22.2218M22.2218 79.0259H22.4997M22.2218 79.0259H22.4997M22.4997 79.0259H22.7776M22.4997 79.0259H22.7776M22.7776 79.0259H23.0554M22.7776 79.0259H23.0554M23.0554 79.0259H23.3333M23.0554 79.0259H23.3333M23.3333 79.0259H23.6111M23.3333 79.0259H23.6111M23.6111 79.0259H23.889M23.6111 79.0259H23.889M23.889 79.0259H24.1668M23.889 79.0259H24.1668M24.1668 79.0259H24.4447M24.1668 79.0259H24.4447M24.4447 79.0259H24.7225M24.4447 79.0259H24.7225M24.7225 79.0259H25.0004M24.7225 79.0259H25.0004M25.0004 79.0259H25.2782M25.0004 79.0259H25.2782M25.2782 79.0259H25.5561M25.2782 79.0259H25.5561M25.5561 79.0259H25.834M25.5561 79.0259H25.834M25.834 79.0259H26.1118M25.834 79.0259H26.1118M26.1118 79.0259H26.3897M26.1118 79.0259H26.3897M26.3897 79.0259H26.6675M26.3897 79.0259H26.6675M26.6675 79.0259H26.9454M26.6675 79.0259H26.9454M26.9454 79.0259H27.2232M26.9454 79.0259H27.2232M27.2232 79.0259H27.5011M27.2232 79.0259H27.5011M27.5011 79.0259H27.7789M27.5011 79.0259H27.7789M27.7789 79.0259H28.0568M27.7789 79.0259H28.0568M28.0568 79.0259H28.3346M28.0568 79.0259H28.3346M28.3346 79.0259H28.6125M28.3346 79.0259H28.6125M28.6125 79.0259H28.8903M28.6125 79.0259H28.8903M28.8903 79.0259H29.1682M28.8903 79.0259H29.1682M29.1682 79.0259H29.446M29.1682 79.0259H29.446M29.446 79.0259H29.7239M29.446 79.0259H29.7239M29.7239 79.0259H30.0018M29.7239 79.0259H30.0018M30.0018 79.0259H30.2796M30.0018 79.0259H30.2796M30.2796 79.0259H30.5575M30.2796 79.0259H30.5575M30.5575 79.0259H30.8353M30.5575 79.0259H30.8353M30.8353 79.0259H31.1132M30.8353 79.0259H31.1132M31.1132 79.0259H31.391M31.1132 79.0259H31.391M31.391 79.0259H31.6689M31.391 79.0259H31.6689M31.6689 79.0259H31.9467M31.6689 79.0259H31.9467M31.9467 79.0259H32.2246M31.9467 79.0259H32.2246M32.2246 79.0259H32.5024M32.2246 79.0259H32.5024M32.5024 79.0259H32.7803M32.5024 79.0259H32.7803M32.7803 79.0259H33.0582M32.7803 79.0259H33.0582M33.0582 79.0259H33.336M33.0582 79.0259H33.336M33.336 79.0259H33.6139M33.336 79.0259H33.6139M33.6139 79.0259H33.8917M33.6139 79.0259H33.8917M33.8917 79.0259H34.1696M33.8917 79.0259H34.1696M34.1696 79.0259H34.4474M34.1696 79.0259H34.4474M34.4474 79.0259H34.7253M34.4474 79.0259H34.7253M34.7253 79.0259H35.0031M34.7253 79.0259H35.0031M35.0031 79.0259H35.281M35.0031 79.0259H35.281M35.281 79.0259H35.5588M35.281 79.0259H35.5588M35.5588 79.0259H35.8367M35.5588 79.0259H35.8367M35.8367 79.0259H36.1145M35.8367 79.0259H36.1145M36.1145 79.0259H36.3924M36.1145 79.0259H36.3924M36.3924 79.0259H36.6702M36.3924 79.0259H36.6702M36.6702 79.0259H36.9481M36.6702 79.0259H36.9481M36.9481 79.0259H37.226M36.9481 79.0259H37.226M37.226 79.0259H37.5038M37.226 79.0259H37.5038M37.5038 79.0259H37.7817M37.5038 79.0259H37.7817M37.7817 79.0259H38.0595M37.7817 79.0259H38.0595M38.0595 79.0259H38.3374M38.0595 79.0259H38.3374M38.3374 79.0259H38.6152M38.3374 79.0259H38.6152M38.6152 79.0259H38.8931M38.6152 79.0259H38.8931M38.8931 79.0259H39.1709M38.8931 79.0259H39.1709M39.1709 79.0259H39.4488M39.1709 79.0259H39.4488M39.4488 79.0259H39.7266M39.4488 79.0259H39.7266M39.7266 79.0259H40.0045M39.7266 79.0259H40.0045M40.0045 79.0259H40.2823M40.0045 79.0259H40.2823M40.2823 79.0259H40.5602M40.2823 79.0259H40.5602M40.5602 79.0259H40.838M40.5602 79.0259H40.838M40.838 79.0259H41.1159M40.838 79.0259H41.1159M41.1159 79.0259H41.3938M41.1159 79.0259H41.3938M41.3938 79.0259H41.6716M41.3938 79.0259H41.6716M41.6716 79.0259H41.9495M41.6716 79.0259H41.9495M41.9495 79.0259H42.2273M41.9495 79.0259H42.2273M42.2273 79.0259H42.5052M42.2273 79.0259H42.5052M42.5052 79.0259H42.783M42.5052 79.0259H42.783M42.783 79.0259H43.0609M42.783 79.0259H43.0609M43.0609 79.0259H43.3387M43.0609 79.0259H43.3387M43.3387 79.0259H43.6166M43.3387 79.0259H43.6166M43.6166 79.0259H43.8944M43.6166 79.0259H43.8944M43.8944 79.0259H44.1723M43.8944 79.0259H44.1723M44.1723 79.0259H44.4501M44.1723 79.0259H44.4501M44.4501 79.0259H44.728M44.4501 79.0259H44.728M44.728 79.0259H45.0059M44.728 79.0259H45.0059M45.0059 79.0259H45.2837M45.0059 79.0259H45.2837M45.2837 79.0259H45.5616M45.2837 79.0259H45.5616M45.5616 79.0259H45.8394M45.5616 79.0259H45.8394M45.8394 79.0259H46.1173M45.8394 79.0259H46.1173M46.1173 79.0259H46.3951M46.1173 79.0259H46.3951M46.3951 79.0259H46.673M46.3951 79.0259H46.673M46.673 79.0259H46.9508M46.673 79.0259H46.9508M46.9508 79.0259H47.2287M46.9508 79.0259H47.2287M47.2287 79.0259H47.5065M47.2287 79.0259H47.5065M47.5065 79.0259H47.7844M47.5065 79.0259H47.7844M47.7844 79.0259H48.0622M47.7844 79.0259H48.0622M48.0622 79.0259H48.3401M48.0622 79.0259H48.3401M48.3401 79.0259H48.618M48.3401 79.0259H48.618M48.618 79.0259H48.8958M48.618 79.0259H48.8958M48.8958 79.0259H49.1737M48.8958 79.0259H49.1737M49.1737 79.0259H49.4515M49.1737 79.0259H49.4515M49.4515 79.0259H49.7294M49.4515 79.0259H49.7294M49.7294 79.0259H50.0072M49.7294 79.0259H50.0072M50.0072 79.0259H50.2851M50.0072 79.0259H50.2851M50.2851 79.0259H50.5629M50.2851 79.0259H50.5629M50.5629 79.0259H50.8408M50.5629 79.0259H50.8408M50.8408 79.0259H51.1186M50.8408 79.0259H51.1186M51.1186 79.0259H51.3965M51.1186 79.0259H51.3965M51.3965 79.0259H51.6743M51.3965 79.0259H51.6743M51.6743 79.0259H51.9522M51.6743 79.0259H51.9522M51.9522 79.0259H52.23M51.9522 79.0259H52.23M52.23 79.0259H52.5079M52.23 79.0259H52.5079M52.5079 79.0259H52.7858M52.5079 79.0259H52.7858M52.7858 79.0259H53.0636M52.7858 79.0259H53.0636M53.0636 79.0259H53.3415M53.0636 79.0259H53.3415M53.3415 79.0259H53.6193M53.3415 79.0259H53.6193M53.6193 79.0259H53.8972M53.6193 79.0259H53.8972M53.8972 79.0259H54.175M53.8972 79.0259H54.175M54.175 79.0259H54.4529M54.175 79.0259H54.4529M54.4529 79.0259H54.7307M54.4529 79.0259H54.7307M54.7307 79.0259H55.0086M54.7307 79.0259H55.0086M55.0086 79.0259H55.2864M55.0086 79.0259H55.2864M55.2864 79.0259H55.5643M55.2864 79.0259H55.5643M55.5643 79.0259H55.8421M55.5643 79.0259H55.8421M55.8421 79.0259H56.12M55.8421 79.0259H56.12M56.12 79.0259H56.3979M56.12 79.0259H56.3979M56.3979 79.0259H56.6757M56.3979 79.0259H56.6757M56.6757 79.0259H56.9536M56.6757 79.0259H56.9536M56.9536 79.0259H57.2314M56.9536 79.0259H57.2314M57.2314 79.0259H57.5093M57.2314 79.0259H57.5093M57.5093 79.0259H57.7871M57.5093 79.0259H57.7871M57.7871 79.0259H58.065M57.7871 79.0259H58.065M58.065 79.0259H58.3428M58.065 79.0259H58.3428M58.3428 79.0259H58.6207M58.3428 79.0259H58.6207M58.6207 79.0259H58.8985M58.6207 79.0259H58.8985M58.8985 79.0259H59.1764M58.8985 79.0259H59.1764M59.1764 79.0259H59.4542M59.1764 79.0259H59.4542M59.4542 79.0259H59.7321M59.4542 79.0259H59.7321M59.7321 79.0259H60.0099M59.7321 79.0259H60.0099M60.0099 79.0259H60.2878M60.0099 79.0259H60.2878M60.2878 79.0259H60.5657M60.2878 79.0259H60.5657M60.5657 79.0259H60.8435M60.5657 79.0259H60.8435M60.8435 79.0259H61.1214M60.8435 79.0259H61.1214M61.1214 79.0259H61.3992M61.1214 79.0259H61.3992M61.3992 79.0259H61.6771M61.3992 79.0259H61.6771M61.6771 79.0259H61.9549M61.6771 79.0259H61.9549M61.9549 79.0259H62.2328M61.9549 79.0259H62.2328M62.2328 79.0259H62.5106M62.2328 79.0259H62.5106M62.5106 79.0259H62.7885M62.5106 79.0259H62.7885M62.7885 79.0259H63.0663M62.7885 79.0259H63.0663M63.0663 79.0259H63.3442M63.0663 79.0259H63.3442M63.3442 79.0259H63.622M63.3442 79.0259H63.622M63.622 79.0259H63.8999M63.622 79.0259H63.8999M63.8999 79.0259H64.1778M63.8999 79.0259H64.1778M64.1778 79.0259H64.4556M64.1778 79.0259H64.4556M64.4556 79.0259H64.7335M64.4556 79.0259H64.7335M64.7335 79.0259H65.0113M64.7335 79.0259H65.0113M65.0113 79.0259H65.2892M65.0113 79.0259H65.2892M65.2892 79.0259H65.567M65.2892 79.0259H65.567M65.567 79.0259H65.8449M65.567 79.0259H65.8449M65.8449 79.0259H66.1227M65.8449 79.0259H66.1227M66.1227 79.0259H66.4006M66.1227 79.0259H66.4006M66.4006 79.0259H66.6784M66.4006 79.0259H66.6784M66.6784 79.0259H66.9563M66.6784 79.0259H66.9563M66.9563 79.0259H67.2341M66.9563 79.0259H67.2341M67.2341 79.0259H67.512M67.2341 79.0259H67.512M67.512 79.0259H67.7899M67.512 79.0259H67.7899M67.7899 79.0259H68.0677M67.7899 79.0259H68.0677M68.0677 79.0259H68.3456M68.0677 79.0259H68.3456M68.3456 79.0259H68.6234M68.3456 79.0259H68.6234M68.6234 79.0259H68.9013M68.6234 79.0259H68.9013M68.9013 79.0259H69.1791M68.9013 79.0259H69.1791M69.1791 79.0259H69.457M69.1791 79.0259H69.457M69.457 79.0259H69.7348M69.457 79.0259H69.7348M69.7348 79.0259H70.0127M69.7348 79.0259H70.0127M70.0127 79.0259H70.2905M70.0127 79.0259H70.2905M70.2905 79.0259H70.5684M70.2905 79.0259H70.5684M70.5684 79.0259H70.8462M70.5684 79.0259H70.8462M70.8462 79.0259H71.1241M70.8462 79.0259H71.1241M71.1241 79.0259H71.4019M71.1241 79.0259H71.4019M71.4019 79.0259H71.6798M71.4019 79.0259H71.6798M71.6798 79.0259H71.9577M71.6798 79.0259H71.9577M71.9577 79.0259H72.2355M71.9577 79.0259H72.2355M72.2355 79.0259H72.5134M72.2355 79.0259H72.5134M72.5134 79.0259H72.7912M72.5134 79.0259H72.7912M72.7912 79.0259H73.0691M72.7912 79.0259H73.0691M73.0691 79.0259H73.3469M73.0691 79.0259H73.3469M73.3469 79.0259H73.6248M73.3469 79.0259H73.6248M73.6248 79.0259H73.9026M73.6248 79.0259H73.9026M73.9026 79.0259H74.1805M73.9026 79.0259H74.1805M74.1805 79.0259H74.4583M74.1805 79.0259H74.4583M74.4583 79.0259H74.7362M74.4583 79.0259H74.7362M74.7362 79.0259H75.014M74.7362 79.0259H75.014M75.014 79.0259H75.2919M75.014 79.0259H75.2919M75.2919 79.0259H75.5698M75.2919 79.0259H75.5698M75.5698 79.0259H75.8476M75.5698 79.0259H75.8476M75.8476 79.0259H76.1255M75.8476 79.0259H76.1255M76.1255 79.0259H76.4033M76.1255 79.0259H76.4033M76.4033 79.0259H76.6812M76.4033 79.0259H76.6812M76.6812 79.0259H76.959M76.6812 79.0259H76.959M76.959 79.0259H77.2369M76.959 79.0259H77.2369M77.2369 79.0259H77.5147M77.2369 79.0259H77.5147M77.5147 79.0259H77.7926M77.5147 79.0259H77.7926M77.7926 79.0259H78.0704M77.7926 79.0259H78.0704M78.0704 79.0259H78.3483M78.0704 79.0259H78.3483M78.3483 79.0259H78.6261M78.3483 79.0259H78.6261M78.6261 79.0259H78.904M78.6261 79.0259H78.904M78.904 79.0259H79.1819M78.904 79.0259H79.1819M79.1819 79.0259H79.4597M79.1819 79.0259H79.4597M79.4597 79.0259H79.7376M79.4597 79.0259H79.7376M79.7376 79.0259H80.0154M79.7376 79.0259H80.0154M80.0154 79.0259H80.2933M80.0154 79.0259H80.2933M80.2933 79.0259H80.5711M80.2933 79.0259H80.5711M80.5711 79.0259H80.849M80.5711 79.0259H80.849M80.849 79.0259H81.1268M80.849 79.0259H81.1268M81.1268 79.0259H81.4047M81.1268 79.0259H81.4047M81.4047 79.0259H81.6825M81.4047 79.0259H81.6825M81.6825 79.0259H81.9604M81.6825 79.0259H81.9604M81.9604 79.0259H82.2382M81.9604 79.0259H82.2382M82.2382 79.0259H82.5161M82.2382 79.0259H82.5161M82.5161 79.0259H82.794M82.5161 79.0259H82.794M82.794 79.0259H83.0718M82.794 79.0259H83.0718M83.0718 79.0259H83.3497M83.0718 79.0259H83.3497M83.3497 79.0259H83.6275M83.3497 79.0259H83.6275M83.6275 79.0259H83.9054M83.6275 79.0259H83.9054M83.9054 79.0259H84.1832M83.9054 79.0259H84.1832M84.1832 79.0259H84.4611M84.1832 79.0259H84.4611M84.4611 79.0259H84.7389M84.4611 79.0259H84.7389M84.7389 79.0259H85.0168M84.7389 79.0259H85.0168M85.0168 79.0259H85.2946M85.0168 79.0259H85.2946M85.2946 79.0259H85.5725M85.2946 79.0259H85.5725M85.5725 79.0259H85.8503M85.5725 79.0259H85.8503M85.8503 79.0259H86.1282M85.8503 79.0259H86.1282M86.1282 79.0259H86.406M86.1282 79.0259H86.406M86.406 79.0259H86.6839M86.406 79.0259H86.6839M86.6839 79.0259H86.9618M86.6839 79.0259H86.9618M86.9618 79.0259H87.2396M86.9618 79.0259H87.2396M87.2396 79.0259H87.5175M87.2396 79.0259H87.5175M87.5175 79.0259H87.7953M87.5175 79.0259H87.7953M87.7953 79.0259H88.0732M87.7953 79.0259H88.0732M88.0732 79.0259H88.351M88.0732 79.0259H88.351M88.351 79.0259H88.6289M88.351 79.0259H88.6289M88.6289 79.0259H88.9067M88.6289 79.0259H88.9067M88.9067 79.0259H89.1846M88.9067 79.0259H89.1846M89.1846 79.0259H89.4624M89.1846 79.0259H89.4624M89.4624 79.0259H89.7403M89.4624 79.0259H89.7403M89.7403 79.0259H90.0181M89.7403 79.0259H90.0181M90.0181 79.0259H90.296M90.0181 79.0259H90.296M90.296 79.0259H90.5739M90.296 79.0259H90.5739M90.5739 79.0259H90.8517M90.5739 79.0259H90.8517M90.8517 79.0259H91.1296M90.8517 79.0259H91.1296M91.1296 79.0259H91.4074M91.1296 79.0259H91.4074M91.4074 79.0259H91.6853M91.4074 79.0259H91.6853M91.6853 79.0259H91.9631M91.6853 79.0259H91.9631M91.9631 79.0259H92.241M91.9631 79.0259H92.241M92.241 79.0259H92.5188M92.241 79.0259H92.5188M92.5188 79.0259H92.7967M92.5188 79.0259H92.7967M92.7967 79.0259H93.0745M92.7967 79.0259H93.0745M93.0745 79.0259H93.3524M93.0745 79.0259H93.3524M93.3524 79.0259H93.6302M93.3524 79.0259H93.6302M93.6302 79.0259H93.9081M93.6302 79.0259H93.9081M93.9081 79.0259H94.186M93.9081 79.0259H94.186M94.186 79.0259H94.4638M94.186 79.0259H94.4638M94.4638 79.0259H94.7417M94.4638 79.0259H94.7417M94.7417 79.0259H95.0195M94.7417 79.0259H95.0195M95.0195 79.0259H95.2974M95.0195 79.0259H95.2974M95.2974 79.0259H95.5752M95.2974 79.0259H95.5752M95.5752 79.0259H95.8531M95.5752 79.0259H95.8531M95.8531 79.0259H96.1309M95.8531 79.0259H96.1309M96.1309 79.0259H96.4088M96.1309 79.0259H96.4088M96.4088 79.0259H96.6866M96.4088 79.0259H96.6866M96.6866 79.0259H96.9645M96.6866 79.0259H96.9645M96.9645 79.0259H97.2423M96.9645 79.0259H97.2423M97.2423 79.0259H97.5202M97.2423 79.0259H97.5202M97.5202 79.0259H97.798M97.5202 79.0259H97.798M97.798 79.0259H98.0759M97.798 79.0259H98.0759M98.0759 79.0259H98.3538M98.0759 79.0259H98.3538M98.3538 79.0259H98.6316M98.3538 79.0259H98.6316M98.6316 79.0259H98.9095M98.6316 79.0259H98.9095M98.9095 79.0259H99.1873M98.9095 79.0259H99.1873M99.1873 79.0259H99.4652M99.1873 79.0259H99.4652M99.4652 79.0259H99.743M99.4652 79.0259H99.743M99.743 79.0259H100.021M99.743 79.0259H100.021M100.021 79.0259H100.299M100.021 79.0259H100.299M100.299 79.0259H100.577M100.299 79.0259H100.577M100.577 79.0259H100.854M100.577 79.0259H100.854M100.854 79.0259H101.132M100.854 79.0259H101.132M101.132 79.0259H101.41M101.132 79.0259H101.41M101.41 79.0259H101.688M101.41 79.0259H101.688M101.688 79.0259H101.966M101.688 79.0259H101.966M101.966 79.0259H102.244M101.966 79.0259H102.244M102.244 79.0259H102.522M102.244 79.0259H102.522M102.522 79.0259H102.799M102.522 79.0259H102.799M102.799 79.0259H103.077M102.799 79.0259H103.077M103.077 79.0259H103.355M103.077 79.0259H103.355M103.355 79.0259H103.633M103.355 79.0259H103.633M103.633 79.0259H103.911M103.633 79.0259H103.911M103.911 79.0259H104.189M103.911 79.0259H104.189M104.189 79.0259H104.467M104.189 79.0259H104.467M104.467 79.0259H104.744M104.467 79.0259H104.744M104.744 79.0259H105.022M104.744 79.0259H105.022M105.022 79.0259H105.3M105.022 79.0259H105.3M105.3 79.0259H105.578M105.3 79.0259H105.578M105.578 79.0259H105.856M105.578 79.0259H105.856M105.856 79.0259H106.134M105.856 79.0259H106.134M106.134 79.0259H106.412M106.134 79.0259H106.412M106.412 79.0259H106.689M106.412 79.0259H106.689M106.689 79.0259H106.967M106.689 79.0259H106.967M106.967 79.0259H107.245M106.967 79.0259H107.245M107.245 79.0259H107.523M107.245 79.0259H107.523M107.523 79.0259H107.801M107.523 79.0259H107.801M107.801 79.0259H108.079M107.801 79.0259H108.079M108.079 79.0259H108.356M108.079 79.0259H108.356M108.356 79.0259H108.634M108.356 79.0259H108.634M108.634 79.0259H108.912M108.634 79.0259H108.912M108.912 79.0259H109.19M108.912 79.0259H109.19M109.19 79.0259H109.468M109.19 79.0259H109.468M109.468 79.0259H109.746M109.468 79.0259H109.746M109.746 79.0259H110.024M109.746 79.0259H110.024M110.024 79.0259H110.301M110.024 79.0259H110.301M110.301 79.0259H110.579M110.301 79.0259H110.579M110.579 79.0259H110.857M110.579 79.0259H110.857M110.857 79.0259H111.135M110.857 79.0259H111.135M111.135 79.0259H111.413M111.135 79.0259H111.413M111.413 79.0259H111.691M111.413 79.0259H111.691M111.691 79.0259H111.969M111.691 79.0259H111.969M111.969 79.0259H112.246M111.969 79.0259H112.246M112.246 79.0259H112.524M112.246 79.0259H112.524M112.524 79.0259H112.802M112.524 79.0259H112.802M112.802 79.0259H113.08M112.802 79.0259H113.08M113.08 79.0259H113.358M113.08 79.0259H113.358M113.358 79.0259H113.636M113.358 79.0259H113.636M113.636 79.0259H113.914M113.636 79.0259H113.914M113.914 79.0259H114.191M113.914 79.0259H114.191M114.191 79.0259H114.469M114.191 79.0259H114.469M114.469 79.0259H114.747M114.469 79.0259H114.747M114.747 79.0259H115.025M114.747 79.0259H115.025M115.025 79.0259H115.303M115.025 79.0259H115.303M115.303 79.0259H115.581M115.303 79.0259H115.581M115.581 79.0259H115.859M115.581 79.0259H115.859M115.859 79.0259H116.136M115.859 79.0259H116.136M116.136 79.0259H116.414M116.136 79.0259H116.414M116.414 79.0259H116.692M116.414 79.0259H116.692M116.692 79.0259H116.97M116.692 79.0259H116.97M116.97 79.0259H117.248M116.97 79.0259H117.248M117.248 79.0259H117.526M117.248 79.0259H117.526M117.526 79.0259H117.804M117.526 79.0259H117.804M117.804 79.0259H118.081M117.804 79.0259H118.081M118.081 79.0259H118.359M118.081 79.0259H118.359M118.359 79.0259H118.637M118.359 79.0259H118.637M118.637 79.0259H118.915M118.637 79.0259H118.915M118.915 79.0259H119.193M118.915 79.0259H119.193M119.193 79.0259H119.471M119.193 79.0259H119.471M119.471 79.0259H119.748M119.471 79.0259H119.748M119.748 79.0259H120.026M119.748 79.0259H120.026M120.026 79.0259H120.304M120.026 79.0259H120.304M120.304 79.0259H120.582M120.304 79.0259H120.582M120.582 79.0259H120.86M120.582 79.0259H120.86M120.86 79.0259H121.138M120.86 79.0259H121.138M121.138 79.0259H121.416M121.138 79.0259H121.416M121.416 79.0259H121.693M121.416 79.0259H121.693M121.693 79.0259H121.971M121.693 79.0259H121.971M121.971 79.0259H122.249M121.971 79.0259H122.249M122.249 79.0259H122.527M122.249 79.0259H122.527M122.527 79.0259H122.805M122.527 79.0259H122.805M122.805 79.0259H123.083M122.805 79.0259H123.083M123.083 79.0259H123.361M123.083 79.0259H123.361M123.361 79.0259H123.638M123.361 79.0259H123.638M123.638 79.0259H123.916M123.638 79.0259H123.916M123.916 79.0259H124.194M123.916 79.0259H124.194M124.194 79.0259H124.472M124.194 79.0259H124.472M124.472 79.0259H124.75M124.472 79.0259H124.75M124.75 79.0259H125.028M124.75 79.0259H125.028M125.028 79.0259H125.306M125.028 79.0259H125.306M125.306 79.0259H125.583M125.306 79.0259H125.583M125.583 79.0259H125.861M125.583 79.0259H125.861M125.861 79.0259H126.139M125.861 79.0259H126.139M126.139 79.0259H126.417M126.139 79.0259H126.417M126.417 79.0259H126.695M126.417 79.0259H126.695M126.695 79.0259H126.973M126.695 79.0259H126.973M126.973 79.0259H127.251M126.973 79.0259H127.251M127.251 79.0259H127.528M127.251 79.0259H127.528M127.528 79.0259H127.806M127.528 79.0259H127.806M127.806 79.0259H128.084M127.806 79.0259H128.084M128.084 79.0259H128.362M128.084 79.0259H128.362M128.362 79.0259H128.64M128.362 79.0259H128.64M128.64 79.0259H128.918M128.64 79.0259H128.918M128.918 79.0259H129.196M128.918 79.0259H129.196M129.196 79.0259H129.473M129.196 79.0259H129.473M129.473 79.0259H129.751M129.473 79.0259H129.751M129.751 79.0259H130.029M129.751 79.0259H130.029M130.029 79.0259H130.307M130.029 79.0259H130.307M130.307 79.0259H130.585M130.307 79.0259H130.585M130.585 79.0259H130.863M130.585 79.0259H130.863M130.863 79.0259H131.14M130.863 79.0259H131.14M131.14 79.0259H131.418M131.14 79.0259H131.418M131.418 79.0259H131.696M131.418 79.0259H131.696M131.696 79.0259H131.974M131.696 79.0259H131.974M131.974 79.0259H132.252M131.974 79.0259H132.252M132.252 79.0259H132.53M132.252 79.0259H132.53M132.53 79.0259H132.808M132.53 79.0259H132.808M132.808 79.0259H133.085M132.808 79.0259H133.085M133.085 79.0259H133.363M133.085 79.0259H133.363M133.363 79.0259H133.641M133.363 79.0259H133.641M133.641 79.0259H133.919M133.641 79.0259H133.919M133.919 79.0259H134.197M133.919 79.0259H134.197M134.197 79.0259H134.475M134.197 79.0259H134.475M134.475 79.0259H134.753M134.475 79.0259H134.753M134.753 79.0259H135.03M134.753 79.0259H135.03M135.03 79.0259H135.308M135.03 79.0259H135.308M135.308 79.0259H135.586M135.308 79.0259H135.586M135.586 79.0259H135.864M135.586 79.0259H135.864M135.864 79.0259H136.142M135.864 79.0259H136.142M136.142 79.0259H136.42M136.142 79.0259H136.42M136.42 79.0259H136.698M136.42 79.0259H136.698M136.698 79.0259H136.975M136.698 79.0259H136.975M136.975 79.0259H137.253M136.975 79.0259H137.253M137.253 79.0259H137.531M137.253 79.0259H137.531M137.531 79.0259H137.809M137.531 79.0259H137.809M137.809 79.0259H138.087M137.809 79.0259H138.087M138.087 79.0259H138.365M138.087 79.0259H138.365M138.365 79.0259H138.643M138.365 79.0259H138.643M138.643 79.0259H138.92M138.643 79.0259H138.92M138.92 79.0259H139.198M138.92 79.0259H139.198M139.198 79.0259H139.476M139.198 79.0259H139.476M139.476 79.0259H139.754M139.476 79.0259H139.754M139.754 79.0259H140.032M139.754 79.0259H140.032M140.032 79.0259H140.31M140.032 79.0259H140.31M140.31 79.0259H140.588M140.31 79.0259H140.588M140.588 79.0259H140.865M140.588 79.0259H140.865M140.865 79.0259H141.143M140.865 79.0259H141.143M141.143 79.0259H141.421M141.143 79.0259H141.421M141.421 79.0259H141.699M141.421 79.0259H141.699M141.699 79.0259H141.977M141.699 79.0259H141.977M141.977 79.0259H142.255M141.977 79.0259H142.255M142.255 79.0259H142.532M142.255 79.0259H142.532M142.532 79.0259H142.81M142.532 79.0259H142.81M142.81 79.0259H143.088M142.81 79.0259H143.088M143.088 79.0259H143.366M143.088 79.0259H143.366M143.366 79.0259H143.644M143.366 79.0259H143.644M143.644 79.0259H143.922M143.644 79.0259H143.922M143.922 79.0259H144.2M143.922 79.0259H144.2M144.2 79.0259H144.477M144.2 79.0259H144.477M144.477 79.0259H144.755M144.477 79.0259H144.755M144.755 79.0259H145.033M144.755 79.0259H145.033M145.033 79.0259H145.311M145.033 79.0259H145.311M145.311 79.0259H145.589M145.311 79.0259H145.589M145.589 79.0259H145.867M145.589 79.0259H145.867M145.867 79.0259H146.145M145.867 79.0259H146.145M146.145 79.0259H146.422M146.145 79.0259H146.422M146.422 79.0259H146.7M146.422 79.0259H146.7M146.7 79.0259H146.978M146.7 79.0259H146.978M146.978 79.0259H147.256M146.978 79.0259H147.256M147.256 79.0259H147.534M147.256 79.0259H147.534M147.534 79.0259H147.812M147.534 79.0259H147.812M147.812 79.0259H148.09M147.812 79.0259H148.09M148.09 79.0259H148.367M148.09 79.0259H148.367M148.367 79.0259H148.645M148.367 79.0259H148.645M148.645 79.0259H148.923M148.645 79.0259H148.923M148.923 79.0259H149.201M148.923 79.0259H149.201M149.201 79.0259H149.479M149.201 79.0259H149.479M149.479 79.0259H149.757M149.479 79.0259H149.757M149.757 79.0259H150.035M149.757 79.0259H150.035M150.035 79.0259H150.312M150.035 79.0259H150.312M150.312 79.0259H150.59M150.312 79.0259H150.59M150.59 79.0259H150.868M150.59 79.0259H150.868M150.868 79.0259H151.146M150.868 79.0259H151.146M151.146 79.0259H151.424M151.146 79.0259H151.424M151.424 79.0259H151.702M151.424 79.0259H151.702M151.702 79.0259H151.98M151.702 79.0259H151.98M151.98 79.0259H152.257M151.98 79.0259H152.257M152.257 79.0259H152.535M152.257 79.0259H152.535M152.535 79.0259H152.813M152.535 79.0259H152.813M152.813 79.0259H153.091M152.813 79.0259H153.091M153.091 79.0259H153.369M153.091 79.0259H153.369M153.369 79.0259H153.647M153.369 79.0259H153.647M153.647 79.0259H153.924M153.647 79.0259H153.924M153.924 79.0259H154.202M153.924 79.0259H154.202M154.202 79.0259H154.48M154.202 79.0259H154.48M154.48 79.0259H154.758M154.48 79.0259H154.758M154.758 79.0259H155.036M154.758 79.0259H155.036M155.036 79.0259H155.314M155.036 79.0259H155.314M155.314 79.0259H155.592M155.314 79.0259H155.592M155.592 79.0259H155.869M155.592 79.0259H155.869M155.869 79.0259H156.147M155.869 79.0259H156.147M156.147 79.0259H156.425M156.147 79.0259H156.425M156.425 79.0259H156.703M156.425 79.0259H156.703M156.703 79.0259H156.981M156.703 79.0259H156.981M156.981 79.0259H157.259M156.981 79.0259H157.259M157.259 79.0259H157.537M157.259 79.0259H157.537M157.537 79.0259H157.814M157.537 79.0259H157.814M157.814 79.0259H158.092M157.814 79.0259H158.092M158.092 79.0259H158.37M158.092 79.0259H158.37M158.37 79.0259H158.648M158.37 79.0259H158.648M158.648 79.0259H158.926M158.648 79.0259H158.926M158.926 79.0259H159.204M158.926 79.0259H159.204M159.204 79.0259H159.482M159.204 79.0259H159.482M159.482 79.0259H159.759M159.482 79.0259H159.759M159.759 79.0259H160.037M159.759 79.0259H160.037M160.037 79.0259H160.315M160.037 79.0259H160.315M160.315 79.0259H160.593M160.315 79.0259H160.593M160.593 79.0259H160.871M160.593 79.0259H160.871M160.871 79.0259H161.149M160.871 79.0259H161.149M161.149 79.0259H161.427M161.149 79.0259H161.427M161.427 79.0259H161.704M161.427 79.0259H161.704M161.704 79.0259H161.982M161.704 79.0259H161.982M161.982 79.0259H162.26M161.982 79.0259H162.26M162.26 79.0259H162.538M162.26 79.0259H162.538M162.538 79.0259H162.816M162.538 79.0259H162.816M162.816 79.0259H163.094M162.816 79.0259H163.094M163.094 79.0259H163.372M163.094 79.0259H163.372M163.372 79.0259H163.649M163.372 79.0259H163.649M163.649 79.0259H163.927M163.649 79.0259H163.927M163.927 79.0259H164.205M163.927 79.0259H164.205M164.205 79.0259C165.937 79.0259 167.783 79.301 169.388 79.9577L164.205 79.0259ZM23.2422 71.5094L23.0684 72.5737L21.9901 72.5578C17.8218 72.4965 14.0126 73.474 10.6371 75.703C4.10927 80.0974 1.07373 86.3292 1.25772 94.1821C1.30595 95.903 2.40775 97.1043 4.21896 97.3572C4.78496 97.4122 5.42216 97.4134 6.13722 97.4134H6.47707H6.81693H7.15677H7.49663H7.83647H8.17633H8.51617H8.85603H9.19588H9.53574H9.87558H10.2154H10.5553H10.8951H11.235H11.5748H11.9147H12.2545H12.5944H12.9342H13.2741H13.6139H13.9538H14.2936H14.6335H14.9733H15.3132H15.653H15.9929H16.3327H16.6726H17.0125H17.3523H17.6922H18.032H18.3719H18.7117H19.0516H19.3914H19.7313H20.0711H20.411H20.7508H21.0907H21.4305H21.7704H22.1102H22.4501H22.7899H23.1298H23.4696H23.8095H24.1493H24.4892H24.829H25.1689H25.5087H25.8486H26.1884H26.5283H26.8681H27.208H27.5478H27.8877H28.2275H28.5674H28.9072H29.2471H29.5869H29.9268H30.2666H30.6065H30.9463H31.2862H31.626H31.9659H32.3057H32.6456H32.9854H33.3253H33.6651H34.005H34.3448H34.6847H35.0246H35.3644H35.7043H36.0441H36.384H36.7238H37.0637H37.4035H37.7434H38.0832H38.4231H38.7629H39.1028H39.4426H39.7825H40.1223H40.4622H40.802H41.1419H41.4817H41.8216H42.1614H42.5013H42.8411H43.181H43.5208H43.8607H44.2005H44.5404H44.8802H45.2201H45.5599H45.8998H46.2396H46.5795H46.9193H47.2592H47.599H47.9389H48.2787H48.6186H48.9584H49.2983H49.6381H49.978H50.3178H50.6577H50.9975H51.3374H51.6772H52.0171H52.3569H52.6968H53.0367H53.3765H53.7164H54.0562H54.3961H54.7359H55.0757H55.4156H55.7554H56.0953H56.4352H56.775H57.1149H57.4547H57.7946H58.1344H58.4743H58.8141H59.154H59.4938H59.8337H60.1735H60.5134H60.8532H61.1931H61.5329H61.8728H62.2126H62.5525H62.8923H63.2322H63.572H63.9119H64.2517H64.5916H64.9314H65.2713H65.6111H65.951H66.2908H66.6307H66.9705H67.3104H67.6502H67.9901H68.3299H68.6698H69.0096H69.3495H69.6893H70.0292H70.369H70.7089H71.0487H71.3886H71.7284H72.0683H72.4081H72.748H73.0879H73.4277H73.7676H74.1074H74.4473H74.7871H75.127H75.4668H75.8067H76.1465H76.4864H76.8262H77.1661H77.5059H77.8458H78.1856H78.5255H78.8653H79.2052H79.545H79.8849H80.2247H80.5646H80.9044H81.2443H81.5841H81.924H82.2638H82.6037H82.9435H83.2834H83.6232H83.9631H84.3029H84.6428H84.9826H85.3225H85.6623H86.0022H86.342H86.6819H87.0217H87.3616H87.7014H88.0413H88.3811H88.721H89.0608H89.4007H89.7405H90.0804H90.4202H90.7601H91.0999H91.4398H91.7796H92.1195H92.4594H92.7992H93.1391H93.4789H93.8188H94.1586H94.4985H94.8383H95.1782H95.518H95.8579H96.1977H96.5376H96.8774H97.2173H97.5571H97.897H98.2368H98.5767H98.9165H99.2564H99.5962H99.9361H100.276H100.616H100.956H101.295H101.635H101.975H102.315H102.655H102.995H103.335H103.674H104.014H104.354H104.694H105.034H105.374H105.714H106.053H106.393H106.733H107.073H107.413H107.753H108.092H108.432H108.772H109.112H109.452H109.792H110.132H110.471H110.811H111.151H111.491H111.831H112.171H112.511H112.85H113.19H113.53H113.87H114.21H114.55H114.89H115.229H115.569H115.909H116.249H116.589H116.929H117.268H117.608H117.948H118.288H118.628H118.968H119.308H119.647H119.987H120.327H120.667H121.007H121.347H121.687H122.026H122.366H122.706H123.046H123.386H123.726H124.065H124.405H124.745H125.085H125.425H125.765H126.105H126.444H126.784H127.124H127.464H127.804H128.144H128.484H128.823H129.163H129.503H129.843H130.183H130.523H130.863H131.202H131.542H131.882H132.222H132.562H132.902H133.241H133.581H133.921H134.261H134.601H134.941H135.281H135.62H135.96H136.3H136.64H136.98H137.32H137.66H137.999H138.339H138.679H139.019H139.359H139.699H140.038H140.378H140.718H141.058H141.398H141.738H142.078H142.417H142.757H143.097H143.437H143.777H144.117H144.457H144.796H145.136H145.476H145.816H146.156H146.496H146.835H147.175H147.515H147.855H148.195H148.535H148.875H149.214H149.554H149.894H150.234H150.574H150.914H151.254H151.593H151.933H152.273H152.613H152.953H153.293H153.633H153.972H154.312H154.652H154.992H155.332H155.672H156.011H156.351H156.691H157.031H157.371H157.711H158.051H158.39H158.73H159.07H159.41H159.75H160.09H160.43H160.769H161.109H161.449H161.789H162.129H162.469H162.808H163.148H163.488H163.828H164.168H164.508H164.848H165.187H165.527H165.867H166.207H166.547H166.887H167.227H167.566H167.906H168.246H168.586H168.926H169.266H169.606H169.945H170.285H170.625H170.965H171.305H171.645H171.984H172.324H172.664H173.004H173.344H173.684H174.024H174.363H174.703H175.043H175.383H175.723H176.063H176.403H176.742H177.082H177.422H177.762H178.102H178.442H178.781H179.121H179.461H179.801H180.141C182.399 97.4134 183.497 97.02 184.076 96.4364C184.648 95.86 185.018 94.7859 184.956 92.5694L184.956 92.5694L184.956 92.5564C184.774 82.3028 176.249 73.3518 165.995 72.6843L165.966 72.6825L165.938 72.6793C165.685 72.6513 165.443 72.6367 165.158 72.6204L165.126 72.6186C164.855 72.6032 164.549 72.5857 164.21 72.5518L163.27 72.4577L163.104 71.5277C162.866 70.1974 162.658 68.9019 162.454 67.6277C162.089 65.3549 161.735 63.1495 161.243 60.9337L161.242 60.9307C158.835 49.9731 153.962 40.2872 146.737 31.7945L146.735 31.793C137.536 20.9442 126.134 13.4723 112.445 9.60637L112.438 9.60429C111.036 9.19936 109.592 8.88483 108.106 8.57943C107.802 8.51714 107.497 8.4551 107.189 8.3927C106.003 8.15196 104.789 7.90578 103.59 7.61908L103.556 7.61083L103.522 7.60064C103.098 7.47337 102.621 7.26628 102.188 6.99124C101.78 6.7325 101.306 6.34873 101.001 5.81854C99.0597 2.73345 96.1051 1.25 93.2036 1.25C90.2976 1.25 87.3384 2.73798 85.397 5.83264C85.0697 6.37243 84.5799 6.78752 84.1137 7.07758C83.6382 7.37346 83.0884 7.60091 82.556 7.69772L82.5457 7.69959L82.5353 7.70129C72.4947 9.35355 63.1212 12.7791 54.7097 18.4711L54.7083 18.4721C38.9038 29.1354 28.8375 43.7016 24.7784 62.3475C24.3358 64.3837 24.0203 66.4605 23.6919 68.622C23.5484 69.567 23.4024 70.5282 23.2422 71.5094ZM31.3636 72.3644H30.0401L30.1156 71.0431C31.6981 43.3493 56.2483 13.6117 92.6439 13.2826L92.6459 13.2826C128.256 13.0193 154.182 41.576 156.29 71.0251L156.386 72.3644H155.044H154.802H154.56H154.319H154.077H153.836H153.594H153.353H153.111H152.87H152.628H152.386H152.145H151.903H151.662H151.42H151.179H150.937H150.695H150.454H150.212H149.971H149.729H149.488H149.246H149.005H148.763H148.521H148.28H148.038H147.797H147.555H147.314H147.072H146.83H146.589H146.347H146.106H145.864H145.623H145.381H145.14H144.898H144.656H144.415H144.173H143.932H143.69H143.449H143.207H142.965H142.724H142.482H142.241H141.999H141.758H141.516H141.275H141.033H140.791H140.55H140.308H140.067H139.825H139.584H139.342H139.1H138.859H138.617H138.376H138.134H137.893H137.651H137.41H137.168H136.926H136.685H136.443H136.202H135.96H135.719H135.477H135.235H134.994H134.752H134.511H134.269H134.028H133.786H133.545H133.303H133.061H132.82H132.578H132.337H132.095H131.854H131.612H131.37H131.129H130.887H130.646H130.404H130.163H129.921H129.68H129.438H129.196H128.955H128.713H128.472H128.23H127.989H127.747H127.505H127.264H127.022H126.781H126.539H126.298H126.056H125.815H125.573H125.331H125.09H124.848H124.607H124.365H124.124H123.882H123.64H123.399H123.157H122.916H122.674H122.433H122.191H121.95H121.708H121.466H121.225H120.983H120.742H120.5H120.259H120.017H119.775H119.534H119.292H119.051H118.809H118.568H118.326H118.085H117.843H117.601H117.36H117.118H116.877H116.635H116.394H116.152H115.91H115.669H115.427H115.186H114.944H114.703H114.461H114.22H113.978H113.736H113.495H113.253H113.012H112.77H112.529H112.287H112.045H111.804H111.562H111.321H111.079H110.838H110.596H110.355H110.113H109.871H109.63H109.388H109.147H108.905H108.664H108.422H108.18H107.939H107.697H107.456H107.214H106.973H106.731H106.49H106.248H106.006H105.765H105.523H105.282H105.04H104.799H104.557H104.315H104.074H103.832H103.591H103.349H103.108H102.866H102.625H102.383H102.141H101.9H101.658H101.417H101.175H100.934H100.692H100.45H100.209H99.9673H99.7258H99.4842H99.2426H99.0011H98.7595H98.5179H98.2764H98.0348H97.7933H97.5517H97.3101H97.0686H96.827H96.5854H96.3439H96.1023H95.8608H95.6192H95.3776H95.1361H94.8945H94.6529H94.4114H94.1698H93.9283H93.6867H93.4451H93.2036H92.962H92.7204H92.4789H92.2373H91.9958H91.7542H91.5126H91.2711H91.0295H90.7879H90.5464H90.3048H90.0633H89.8217H89.5801H89.3386H89.097H88.8554H88.6139H88.3723H88.1308H87.8892H87.6476H87.4061H87.1645H86.9229H86.6814H86.4398H86.1983H85.9567H85.7151H85.4736H85.232H84.9904H84.7489H84.5073H84.2658H84.0242H83.7826H83.5411H83.2995H83.0579H82.8164H82.5748H82.3333H82.0917H81.8501H81.6086H81.367H81.1254H80.8839H80.6423H80.4007H80.1592H79.9176H79.6761H79.4345H79.1929H78.9514H78.7098H78.4683H78.2267H77.9851H77.7436H77.502H77.2604H77.0189H76.7773H76.5358H76.2942H76.0526H75.8111H75.5695H75.3279H75.0864H74.8448H74.6032H74.3617H74.1201H73.8786H73.637H73.3954H73.1539H72.9123H72.6708H72.4292H72.1876H71.9461H71.7045H71.4629H71.2214H70.9798H70.7383H70.4967H70.2551H70.0136H69.772H69.5304H69.2889H69.0473H68.8057H68.5642H68.3226H68.0811H67.8395H67.5979H67.3564H67.1148H66.8733H66.6317H66.3901H66.1486H65.907H65.6654H65.4239H65.1823H64.9408H64.6992H64.4576H64.2161H63.9745H63.7329H63.4914H63.2498H63.0082H62.7667H62.5251H62.2836H62.042H61.8004H61.5589H61.3173H61.0758H60.8342H60.5926H60.3511H60.1095H59.8679H59.6264H59.3848H59.1432H58.9017H58.6601H58.4186H58.177H57.9354H57.6939H57.4523H57.2108H56.9692H56.7276H56.4861H56.2445H56.0029H55.7614H55.5198H55.2782H55.0367H54.7951H54.5536H54.312H54.0704H53.8289H53.5873H53.3457H53.1042H52.8626H52.6211H52.3795H52.1379H51.8964H51.6548H51.4133H51.1717H50.9301H50.6886H50.447H50.2054H49.9639H49.7223H49.4807H49.2392H48.9976H48.7561H48.5145H48.2729H48.0314H47.7898H47.5482H47.3067H47.0651H46.8236H46.582H46.3404H46.0989H45.8573H45.6158H45.3742H45.1326H44.8911H44.6495H44.4079H44.1664H43.9248H43.6832H43.4417H43.2001H42.9586H42.717H42.4754H42.2339H41.9923H41.7507H41.5092H41.2676H41.0261H40.7845H40.5429H40.3014H40.0598H39.8183H39.5767H39.3351H39.0936H38.852H38.6104H38.3689H38.1273H37.8857H37.6442H37.4026H37.1611H36.9195H36.6779H36.4364H36.1948H35.9532H35.7117H35.4701H35.2286H34.987H34.7454H34.5039H34.2623H34.0207H33.7792H33.5376H33.2961H33.0545H32.8129H32.5714H32.3298H32.0882H31.8467H31.6051H31.3636Z" fill="#314178" stroke="white" stroke-width="2.5"/>
<path d="M53.7278 112.374L53.8464 113.336C53.9878 114.482 54.1181 115.623 54.2478 116.757C54.6464 120.245 55.0388 123.678 55.7254 127.064C56.6768 132.27 56.7286 137.286 54.982 142.281C54.3125 144.091 53.9065 146.109 53.9053 148.011C53.8513 150.625 54.024 153.241 54.1942 155.82C54.2281 156.334 54.262 156.846 54.2939 157.357L54.2945 157.366C54.3825 158.538 54.1564 159.423 53.75 160.029C53.3548 160.619 52.7453 161.014 51.907 161.148C51.0302 161.251 50.3295 161.036 49.7917 160.583C49.2382 160.117 48.7861 159.336 48.5513 158.192C47.2865 151.994 47.6025 145.867 49.5625 139.798L49.5649 139.79C50.5063 136.764 50.6357 133.75 50.2379 130.634L50.2376 130.631C50.1378 129.869 50.0368 129.108 49.9359 128.347C49.3178 123.686 48.7024 119.045 48.3713 114.356C48.075 109.655 51.8034 106.008 55.8934 106.63C58.1345 106.994 60.4117 108.094 62.2765 109.462L62.2815 109.466C66.4081 112.439 67.8446 116.814 67.9704 121.908L67.9704 121.909C68.1052 127.102 70.3394 131.495 74.3037 134.788C74.9449 135.328 75.7481 135.91 76.5999 136.354C77.4388 136.79 78.3996 137.131 79.3323 137.091C79.3327 137.091 79.3331 137.091 79.3336 137.091L79.301 136.342C82.5269 136.213 85.8173 135.503 88.9786 134.729L53.7278 112.374ZM53.7278 112.374L54.689 112.501C58.4228 112.994 61.2127 115.752 61.7187 119.191M53.7278 112.374L61.7187 119.191M61.7187 119.191C61.8845 120.156 61.9672 121.148 62.0467 122.101L62.048 122.118C62.1292 123.092 62.2076 124.026 62.3623 124.924L62.3628 124.927C63.4893 131.623 66.9214 136.874 72.4517 140.896L72.453 140.897C75.5905 143.19 79.0457 143.459 82.7736 143.079V143.079L82.7802 143.079C88.8782 142.513 94.2213 140.191 98.9513 136.281C107.524 129.126 115.877 121.799 123.324 113.582C124.678 112.056 126.241 111.153 128.015 110.951C129.776 110.75 131.644 111.25 133.6 112.33L134.355 112.746L133.838 113.436C133.763 113.536 133.69 113.634 133.617 113.733C133.324 114.127 133.037 114.513 132.71 114.894L132.703 114.903L132.695 114.911C121.315 127.384 111.544 141.012 103.51 155.86L103.508 155.863C99.74 162.749 95.257 169.182 90.0589 175.095M61.7187 119.191L94.1213 130.956C96.1139 126.348 98.2099 121.775 100.313 117.186C101.476 114.65 102.64 112.108 103.791 109.554C105.553 105.692 108.307 103.376 111.39 102.626C114.472 101.876 118.012 102.657 121.413 105.249C121.801 105.572 122.289 105.692 122.691 105.739C123.111 105.788 123.539 105.767 123.886 105.733C124.745 105.661 125.61 105.554 126.458 105.449C126.771 105.411 127.082 105.372 127.39 105.336C128.544 105.199 129.67 105.091 130.786 105.091C131.908 105.091 133.13 105.544 134.443 106.07L134.45 106.073L134.45 106.072C137.442 107.232 139.178 109.167 139.703 111.295C140.227 113.419 139.587 115.915 137.455 118.291C126.448 130.463 117.061 143.671 109.035 157.975L109.034 157.976C106.323 162.824 103.106 167.414 99.8725 172.027C99.1315 173.084 98.3896 174.143 97.6528 175.206L97.6517 175.207C96.4002 177.022 94.8253 178.726 93.2226 180.328C92.1569 181.394 90.4183 181.396 89.3528 180.432C88.2814 179.462 88.0536 177.994 88.9077 176.606L88.9164 176.592L88.9245 176.578C89.2016 176.079 89.5971 175.622 90.0589 175.095M90.0589 175.095C90.059 175.095 90.0591 175.094 90.0592 175.094L89.4948 174.6L90.0581 175.096C90.0583 175.095 90.0586 175.095 90.0589 175.095ZM106.809 122.023L106.279 122.573L105.745 122.039C105.742 122.037 105.721 122.023 105.658 121.984C105.653 121.982 105.649 121.979 105.644 121.976C105.572 121.933 105.42 121.843 105.287 121.71L104.922 121.345L105.133 120.873C105.352 120.386 105.571 119.896 105.791 119.406C106.993 116.72 108.215 113.989 109.53 111.305C110.318 109.658 111.575 108.588 113.086 108.328C114.591 108.068 116.172 108.644 117.552 109.919L118.121 110.444L117.579 110.996C113.965 114.674 110.355 118.349 106.809 122.023Z" fill="#314178" stroke="white" stroke-width="1.5"/>
<path d="M142.814 61.7501L142.814 61.7501L142.809 61.7405C141.065 57.7989 139.341 53.9067 137.175 50.2757C130.989 40.1362 122.573 32.2934 112.108 26.6777L112.086 26.666L112.065 26.6528C111.568 26.3421 111.049 26.0581 110.556 25.8924C109.852 25.6773 109.294 25.7091 108.849 25.8894C108.4 26.0712 107.984 26.4375 107.628 27.0373C107.275 27.664 107.172 28.2312 107.251 28.7095C107.328 29.1804 107.595 29.6485 108.143 30.0655L108.144 30.0663C109.051 30.7606 110.099 31.3632 111.176 31.9823C111.342 32.0781 111.509 32.1742 111.677 32.2711L111.677 32.2711L111.684 32.2755C123.106 39.0633 131.537 48.4729 136.828 60.6213L136.831 60.6283L136.834 60.6352C136.951 60.9199 137.059 61.207 137.163 61.4819L137.165 61.487C137.27 61.767 137.371 62.0346 137.479 62.2966C137.694 62.82 137.925 63.2893 138.229 63.7031L138.229 63.7031L138.234 63.7107C138.672 64.3228 139.291 64.8142 139.801 65.2196C139.878 65.2803 139.952 65.3392 140.022 65.3962C141.31 65.363 142.182 64.8746 142.647 64.2595C143.134 63.6138 143.258 62.7179 142.814 61.7501Z" fill="#314178" stroke="white" stroke-width="1.5"/>
</svg>
