<?xml version="1.0" standalone="no"?>
<!DOCTYPE svg PUBLIC "-//W3C//DTD SVG 20010904//EN"
 "http://www.w3.org/TR/2001/REC-SVG-20010904/DTD/svg10.dtd">
<svg version="1.0" xmlns="http://www.w3.org/2000/svg"
 width="700.000000pt" height="700.000000pt" viewBox="0 0 700.000000 700.000000"
 preserveAspectRatio="xMidYMid meet">
<metadata>
Created by potrace 1.14, written by Peter Selinger 2001-2017
</metadata>
<g transform="translate(0.000000,700.000000) scale(0.100000,-0.100000)"
fill="#000000" stroke="none">
<path d="M8 6993 c-3 -7 -2 -6944 1 -6980 1 -10 707 -13 3496 -13 l3495 0 0
3500 0 3500 -3494 0 c-1922 0 -3496 -3 -3498 -7z m6111 -3493 c0 -2456 -1
-2610 -17 -2611 -9 0 -1184 -2 -2610 -2 -2586 -2 -2592 -2 -2593 18 -1 26 -1
5153 0 5183 l1 22 2610 0 2610 0 -1 -2610z"/>
</g>
</svg>
